<?xml version="1.0" encoding="UTF-8"?>
<!-- Generator: Adobe Illustrator 25.4.1, SVG Export Plug-In . SVG Version: 6.00 Build 0)  -->
<svg version="1.1" xmlns="http://www.w3.org/2000/svg" xmlns:xlink="http://www.w3.org/1999/xlink" x="0px" y="0px" viewBox="0 0 73.01 56" style="enable-background:new 0 0 331.01 56;" xml:space="preserve">
<style type="text/css">
	.st0{fill:#FF6600;}
</style>
<g id="_x40__x28_">
	<g>
		<path class="st0" d="M49.15,42.33h6.05c-1.9,3.86-4.8,6.89-8.72,9.08c-4.49,2.51-9.97,3.77-16.43,3.77    c-6.25,0-11.65-1.06-16.2-3.18c-4.55-2.12-7.93-5.25-10.15-9.39c-2.22-4.14-3.33-8.64-3.33-13.52c0-5.35,1.26-10.33,3.78-14.94    c2.52-4.61,5.97-8.08,10.34-10.39c4.38-2.31,9.38-3.47,15-3.47c4.77,0,9.02,0.93,12.73,2.8c3.71,1.87,6.55,4.52,8.51,7.95    c1.96,3.44,2.94,7.19,2.94,11.26c0,4.85-1.49,9.24-4.46,13.16c-3.73,4.95-8.52,7.42-14.35,7.42c-1.57,0-2.76-0.28-3.55-0.83    c-0.8-0.55-1.33-1.36-1.59-2.43c-2.24,2.17-4.81,3.25-7.73,3.25c-3.15,0-5.75-1.09-7.83-3.27c-2.07-2.18-3.11-5.08-3.11-8.69    c0-4.47,1.25-8.55,3.75-12.25c3.03-4.49,6.92-6.74,11.65-6.74c3.37,0,5.86,1.29,7.47,3.88l0.71-3.17h7.5l-4.29,20.47    c-0.27,1.29-0.4,2.13-0.4,2.51c0,0.48,0.11,0.83,0.33,1.07c0.22,0.24,0.48,0.36,0.78,0.36c0.91,0,2.08-0.55,3.52-1.66    c1.93-1.45,3.5-3.39,4.69-5.82c1.19-2.44,1.79-4.96,1.79-7.56c0-4.68-1.69-8.6-5.06-11.75c-3.37-3.15-8.08-4.72-14.12-4.72    c-5.13,0-9.49,1.05-13.06,3.15c-3.57,2.1-6.26,5.06-8.07,8.88c-1.81,3.82-2.71,7.79-2.71,11.92c0,4.02,1.01,7.67,3.03,10.96    c2.02,3.29,4.85,5.7,8.5,7.21c3.65,1.51,7.82,2.27,12.52,2.27c4.53,0,8.42-0.63,11.68-1.9C44.54,46.76,47.16,44.86,49.15,42.33z     M18.43,30.6c0,2.42,0.49,4.2,1.46,5.34c0.98,1.14,2.18,1.71,3.62,1.71c1.08,0,2.09-0.27,3.04-0.8c0.72-0.38,1.43-0.98,2.13-1.8    c1-1.16,1.87-2.85,2.6-5.08c0.73-2.23,1.09-4.3,1.09-6.22c0-2.15-0.5-3.8-1.49-4.95c-0.99-1.15-2.25-1.73-3.77-1.73    c-1.63,0-3.14,0.63-4.52,1.9s-2.43,3.07-3.13,5.41C18.78,26.72,18.43,28.79,18.43,30.6z"/>
		<path class="st0" d="M72.82,55.18h-5.48c-2.9-4.4-5.11-8.96-6.62-13.7c-1.52-4.74-2.27-9.33-2.27-13.76    c0-5.5,0.94-10.71,2.81-15.62c1.63-4.26,3.69-8.19,6.2-11.79h5.46c-2.6,5.77-4.38,10.67-5.36,14.72    c-0.98,4.04-1.46,8.33-1.46,12.86c0,3.12,0.29,6.32,0.87,9.59c0.58,3.27,1.37,6.38,2.37,9.33C69.99,48.76,71.16,51.54,72.82,55.18    z"/>
	</g>
</g>
</svg>