<?xml version="1.0" encoding="utf-8"?>
<!-- Generator: Adobe Illustrator 19.0.0, SVG Export Plug-In . SVG Version: 6.00 Build 0)  -->
<svg version="1.1" id="layer" xmlns="http://www.w3.org/2000/svg" xmlns:xlink="http://www.w3.org/1999/xlink" x="0px" y="0px"
	 viewBox="-153 -46 7824 5216" style="enable-background:new -153 -46 652 652;" xml:space="preserve">
<style type="text/css">
	.st0{fill:#BD994C;}
	.st1{fill:#005030;}
	.st2{fill:#EE3124;}
	.st3{fill:#F3E4B1;}
	.st4{fill:#154734;}
</style>
<g>
	<path class="st0" d="M451.2,285.1c0.5,0.6,1.2,0.9,1.9,1c-0.2-0.8-0.5-1.7-0.6-2.7c-0.1-0.7-0.2-1.5-0.2-2.3c5-1.3,9.4-3,13-4.9
		c4.2-2.3,7.6-5,10.3-8l0.4-11.5c-0.9,1.6-1.9,3.1-3.1,4.6c-2.7,3.4-6.5,6.5-11.2,9c-3.8,2.1-8.2,3.8-13.4,5.1c0,1,0.2,2,0.3,3
		C448.9,281.2,449.8,283.4,451.2,285.1 M455.3,249.5c1-1.1,1.7-2.1,2-3.1c0.3-1.1,0.5-2,0.3-3c0-0.4-0.1-0.8-0.2-1
		c-1.9,0.5-3.5,2-5,4.4c-1.1,1.8-2,4-2.7,6.6c0.4-0.2,0.8-0.4,1.1-0.6C452.7,251.8,454.2,250.7,455.3,249.5 M225.2,355.8
		c-0.1,2.5,0.9,4,1.8,4.9c1.1,1.1,2.6,1.7,4.2,1.7c0.4,0,1,0,1.3-0.1l16.1-3.3c1.5-0.3,2.8-1.2,3.7-2.6c1-1.3,1.5-2.8,1.4-4.3
		l1.6-36.6c0.4-9.4,1.5-16.2,3.3-20.4c1.1-2.6,2-3.8,2.6-4.3c0.7,0.9,1.5,1.7,2.4,2.4c1,0.9,2.9,1.9,6.1,1.6c0-0.1,0-0.2,0-0.3
		c0.2-2.3,0.5-4.6,0.9-6.8c-0.9,0.5-1.9,0.9-3,1.1c-3.1,0.5-5,0-6.6-1.3c-0.9-0.8-1.7-1.6-2.4-2.5c-0.1-0.2-0.2-0.3-0.4-0.4
		c-0.4,0.2-1.8,1.2-3.4,5.2c-1.8,4.3-2.9,11.2-3.4,20.7l-1.6,36.6c0.1,1.4-0.4,2.7-1.2,3.9c-0.3,0.4-1.4,1.9-3.4,2.3l-16,3.3
		c-0.3,0-0.8,0.1-1.1,0.1c-1,0-2-0.4-2.8-0.9V355.8z M296.4,350.9c1.4,0,2.8-0.2,4.2-0.4c5.2-1.1,10.1-4.2,14.6-9.2
		c1.1-1.2,2-2.5,2.9-3.9c0.5,0.6,1,1.1,1.6,1.7c2.5,2.3,6.2,3.5,11.2,3.5c2,0,3.5-0.2,3.8-0.3c1.8-0.4,3.8-1.6,4.7-4
		c0.1,0.1,0.2,0.2,0.2,0.2c1,0.6,2.1,0.9,3.2,0.9c0.3,0,0.8-0.1,1.2-0.1l14.9-3.1c1.3-0.3,2.4-1,3.4-2.2c1.1-1.3,1.7-3,1.6-4.7
		l1.3-33.6c0.3-9.2,1.6-16.6,3.7-21.9c0.5-1.2,1-2.1,1.4-2.9c0.1-2.3,0-4.4-0.2-6.1c-0.3-1.7-0.7-2.7-0.9-3.2
		c-0.7,0.4-2.2,1.9-4.2,6.7c-2.2,5.4-3.4,12.8-3.8,22.2l-1.3,33.6c0.1,1.5-0.4,3-1.4,4.2c-0.8,0.9-1.7,1.5-2.7,1.9
		c-0.2,0.1-0.3,0.1-0.5,0.1l-14.7,3.1c-1.2,0.2-2.6,0-3.7-0.7c-0.3-0.1-0.7-0.4-1.1-0.9c-0.5,2.8-2.6,4.2-4.4,4.6
		c-0.3,0-1.7,0.2-3.6,0.2c-4.8,0-8.3-1.1-10.6-3.3c-0.9-0.8-1.6-1.6-2.2-2.5c-1,1.8-2.1,3.4-3.4,4.8c-4.3,4.9-9.1,7.8-14.2,8.9
		c-6.9,1.4-13.3-0.8-18.3-6.6c-1.3-1.5-2.5-3.3-3.5-5.2c1.5,4.2,3.6,7.9,6.1,10.8C285.7,348.4,290.7,350.9,296.4,350.9 M376.7,332.3
		c0.4,0,0.9-0.1,1.3-0.1l14.4-3c1.2-0.2,2.8-0.9,4.1-3.1c0.6-1,0.9-2,1.1-3.4l1.3-33.5c0.3-9.1,1.5-16.3,3.5-21.6
		c0.4-0.9,0.7-1.7,1.1-2.4c0-0.9,0.1-1.7,0-2.5c0-1.6-0.1-2.9-0.2-4.1c-0.2-1.7-0.5-2.6-0.8-3c-0.6,0.4-2.2,1.8-4,6.6
		c-2,5.3-3.3,12.7-3.6,21.8l-1.3,33.5c-0.1,1.2-0.4,2.1-0.9,3.1c-1.2,2-2.7,2.6-3.7,2.8l-14.3,2.9c-0.3,0.1-0.8,0.1-1.1,0.1
		c-0.9,0-1.8-0.3-2.5-0.8c-0.2,2.4,0.7,4,1.5,4.8C373.5,331.7,375.1,332.3,376.7,332.3 M299.1,317.4c0.8,1.1,1.3,1.1,1.6,1.1
		c0.1,0,0.3,0,0.5,0l0.1,0c-0.3-1.2-0.6-2.5-0.9-4c-0.5-3-0.7-6.7-0.6-11.1c0.1-4.4,0.6-8.7,1.4-12.8c0.8-3.9,1.9-7.4,3.4-10.2
		c1.5-2.8,2.7-3,3.1-3c0.3,0,0.5-0.1,0.7-0.1c0.3,0,0.6,0.1,0.9,0.3c-0.6-3-1.4-4.6-2.1-5.3c-0.6-0.6-1.1-0.9-2-0.9
		c-0.3,0-0.6,0-0.9,0.1c-0.5,0.1-2,0.4-3.7,3.4c-1.5,3-2.7,6.5-3.5,10.4c-0.8,4.2-1.3,8.5-1.4,12.9c-0.1,4.4,0.1,8.1,0.6,11.2
		C296.9,313,297.8,315.7,299.1,317.4 M531.8,235.9c0.1,2.1,0.1,4.6-0.1,7.5l-0.8,20.7c0,0.3-0.1,0.7-0.2,1.1
		c-0.6,21.3-1,43.2,0.6,59.7l0,0.2c1.3,0.8,2.5,1.6,3.7,2.4c-1.4-16.2-1.1-36.9-0.5-57c0.1-0.3,0.1-0.5,0.2-0.7c0-0.2,0-0.3,0-0.5
		l0.8-20.7c0.2-3,0.2-5.5,0-7.6c-0.1-2.2-0.3-4.5-0.6-6.8c-0.9-7.2-3.2-12.3-6.8-15.5c-0.2-0.1-0.3-0.2-0.4-0.3
		c1.6,2.8,2.7,6.3,3.3,10.8C531.5,231.5,531.7,233.8,531.8,235.9 M111.1,355.1c0.6,0.7,1.3,1.1,2,1.2c-0.4-1.3-0.8-2.8-1-4.6
		c-0.6-3.6-0.8-7.8-0.6-12.5c0.2-4.8,0.9-9.4,1.9-13.7c1-4.1,2.5-7.7,4.3-10.8c1.8-2.9,3.5-3.5,4.7-3.8c0.3,0,0.5-0.1,0.8-0.1
		c0.5,0,1,0.1,1.6,0.8c-0.6-2.3-1.4-4.1-2.4-5.4c-0.9-1.1-1.7-1.3-2.4-1.3c-0.3,0-0.6,0-0.9,0.1c-1.3,0.2-3.2,0.9-5.2,4.1
		c-1.9,3.1-3.4,6.8-4.4,11c-1.1,4.3-1.7,9-1.9,13.9c-0.2,4.8,0,9.1,0.6,12.6C108.6,350.6,109.6,353.4,111.1,355.1 M93.1,380.7
		c3.3,3.2,7.2,5.5,11.7,6.8c2.5,0.7,5.1,1.1,7.9,1.1c2.3,0,4.7-0.3,7.2-0.8c8.1-1.7,14.9-5.2,20.3-10.7c5-4.9,8.9-10.8,11.9-17.3
		l0.9-19.7c-1,4.7-2.5,9.2-4.4,13.6c-2.9,6.7-7,12.7-12.1,17.8c-5.3,5.3-12,8.8-20,10.5c-5.4,1.1-10.3,1-14.7-0.3
		c-4.3-1.3-8.1-3.6-11.4-6.6c-2.3-2.2-4.3-4.8-6-7.8c0.2,0.6,0.4,1.3,0.7,2C87.2,373.8,89.8,377.7,93.1,380.7 M248.9,265.1
		L248.9,265.1C248.9,265.1,248.9,265.1,248.9,265.1L248.9,265.1z M426.1,327.7c2-0.4,3.7-1.6,4.5-3.1c0.7-1,1-2.1,1.1-3.2
		c0-0.4,0-0.9-0.1-1.3c-0.5-2.6-1.1-7.5-1-9.9c0.1-1.1,0.2-4.7,0.3-9.1c1.5,3.7,3.4,7,5.8,9.6c2.6,2.9,5.8,5.1,9.4,6.4
		c2.2,0.8,4.6,1.2,7.1,1.2c1.7,0,3.4-0.2,5.1-0.5c4.3-0.9,8.1-2.4,11.4-4.6c3.2-2.1,5.7-4.6,7.5-7.4c0.3,1.5,1.1,2.8,2.5,3.7
		c1.4,0.9,3,1.2,4.5,0.9l13.2-2.8c1-0.2,2.9-0.9,4.2-3.1c0.6-1.2,0.9-2.4,0.9-3.7l1.2-31.9c0.3-8.9,1.5-15.9,3.5-20.7
		c0.4-0.9,0.7-1.6,1.1-2.2c0-2.3,0.1-4.6,0.1-6.9c-0.3-2.1-0.7-2.7-0.7-2.7c-0.2,0.1-2,0.7-4.4,6.3c-2,4.9-3.2,11.9-3.6,21
		l-1.1,31.9c0.1,1.1-0.2,2.1-0.7,3.1c-0.9,1.5-2.1,2.5-3.5,2.8l-13.3,2.8c-1.2,0.2-2.6,0-3.8-0.7c-1.7-1.1-2.6-3-2.3-5.1l0-1.4v0.1
		c-0.2,0.8-0.6,1.7-1.2,2.6c-1.7,2.8-4.2,5.3-7.4,7.4c-3.2,2.1-6.9,3.6-11.1,4.5c-4.1,0.9-8.1,0.7-11.7-0.7c-3.4-1.2-6.5-3.4-9-6.2
		c-2.4-2.7-4.4-6.1-5.9-10c-0.4-1.1-0.8-2.1-1.1-3.2c-0.2,6.4-0.4,11.8-0.5,13.2c-0.2,2.8,0.7,8.2,1,10.1c0.1,0.4,0.1,0.7,0.1,1
		c-0.1,1-0.4,2.1-1,3c-0.7,1.3-2.2,2.3-4,2.7c-5.4,1.1-10.5-0.7-14.3-4.6c-0.8-0.8-1.6-1.8-2.3-2.9c1.3,4,3.2,6.8,5,8.6
		C415.1,327,420.7,328.8,426.1,327.7 M183.2,377c0.1-2.5,0.1-5.1,0.2-7.5c1.4,0.9,2.9,1.6,4.5,2.1c2.9,0.9,6,1.1,9.3,0.3
		c6.6-1.4,12.3-4.8,16.8-10.2c3.7-4.4,6.6-9.6,8.9-15.4l0.8-23.1c-0.8,5.3-2.1,10.4-3.8,15.1c-2.4,6.8-5.7,12.8-9.8,17.7
		c-4.5,5.3-9.9,8.7-16.4,10c-3.1,0.7-6.2,0.6-9-0.3c-2-0.7-3.8-1.6-5.4-2.9c0,3-0.1,6-0.2,9c-0.1,3.2-0.3,9.1-0.6,15.8
		c1.4-0.3,2.8-0.6,4.2-0.9C183,382.6,183.1,379.1,183.2,377 M33.1,403.3c0.3,0,1-0.1,1.4-0.1l18.5-3.8c1.4-0.3,2.8-1.2,3.8-2.6
		c1.3-1.7,1.5-3.3,1.5-4.5l1.8-39.3c0.5-10.1,1.7-17.5,3.8-22c1.7-3.8,3.2-5.2,4-5.5c0.1,0.2,0.3,0.3,0.4,0.5c0.8,1,1.7,1.9,2.8,2.7
		c1.8,1.4,4.1,1.9,7.2,1.3c0.1-0.6,0.1-1.1,0.2-1.7c0.3-2,0.6-3.9,1-5.8c-1.3,0.8-2.7,1.4-4.1,1.6c-3.1,0.6-5.2,0.1-6.9-1.1
		c-1.1-0.9-2-1.7-2.7-2.7c-0.2-0.3-0.4-0.5-0.7-0.8c-0.1,0-0.2,0-0.2,0c-1.1,0.2-2.8,1.9-4.7,6c-2.1,4.6-3.4,12.1-3.9,22.2
		l-1.9,39.3c0.1,1-0.2,2.5-1.3,4c-1,1.3-2.2,2.1-3.4,2.4l-18.5,3.8c-0.3,0.1-0.9,0.1-1.2,0.1c-1.1,0-2-0.4-2.9-1v0.2
		c0,2.5,1,4.1,1.8,4.9C30,402.7,31.5,403.3,33.1,403.3 M186.2,341.8c-0.2-0.7-0.3-1.5-0.5-2.5c-0.4-3.2-0.6-6.7-0.5-10.5l0.2-5.9
		c0.3-9,1.5-15.6,3.6-19.5c1.2-2.2,3.1-5,5.2-5.4c0.2,0,0.4-0.1,0.5-0.1c0.3,0,0.7,0.1,1.4,0.8c-0.6-2.3-1.3-4.1-2.4-5.4
		c-1.1-1.3-1.8-1.3-2.2-1.3c-0.2,0-0.4,0-0.6,0c-2,0.4-4,2.3-5.8,5.7c-2.2,4.1-3.4,10.8-3.8,19.9l-0.2,5.9
		c-0.1,3.9,0.1,7.5,0.5,10.6C182.7,341.6,185.2,341.8,186.2,341.8 M-74.7,383.7c-0.3,5.6,0.8,7,0.9,7.1c0.4,0.5,1.5,0.6,3,0.3
		c0-0.7,0-1.4,0-2.3l2.5-51.5c4.7-1.6,9.3-3.6,13.9-5.8c1.5-3.6,3.2-7.1,5.2-10.2c-7.5,4.2-15.3,7.6-23.1,10.3L-74.7,383.7z
		 M-122.1,335.7l-0.1,0.5c-0.2,1.4,0.2,2.8,1,3.9c0.9,1.1,2.1,1.8,3.5,1.9c0.3,0,6.2,0.6,13.3,0.8l0.3-5.9
		c-8.6-0.1-16.4-0.9-16.7-0.9C-121.2,336.1-121.7,335.9-122.1,335.7 M-163.4,395.3c20.5,22.7,44.5,46.6,53.7,64.2
		c-6-18.4-31.3-46.7-54.1-71.9l-8.8-9.8c-19.3-21.4-34.7-38.6-45.2-64.5c9.9,29.9,24.8,49.2,45.6,72.2L-163.4,395.3z M427.9,250.6
		c0.7-2.4,1.6-4.7,2.6-7c0-0.1,0.1-0.3,0.2-0.4c-1.2-2.9-2.7-5.2-4.6-6.9c-1.2-1.1-2.5-1.9-3.9-2.6c2.7,3.1,4.6,7.5,5.4,13.5
		C427.7,248.3,427.9,249.4,427.9,250.6 M564.1,364.4c-0.5-3.3-1.5-6.5-3.4-10c-1.7-3.2-4.1-6.4-7-9.6c1.2,1.6,2.3,3.2,3.2,4.8
		c1.8,3.5,2.8,6.6,3.3,9.8c0.7,4-0.1,7.8-2.3,10.5c-1.9,2.3-4.6,3.5-7.7,3.5c-1.2,0-2.5-0.2-3.8-0.6c-9.7-3.3-19.3-11.7-25.9-22.5
		c-2.4-4-4.4-8.2-6.7-13.1l-0.3-0.8c-8.8-2.6-16.7-2.8-24.8-0.4C440.5,350-59,489.6-64.1,491c-0.4,0.1-0.8,0.2-1.2,0.2
		c-0.6,0-1.2-0.2-1.8-0.4c-0.4,1.5,0,3.2,1,4.5c1,1.2,2.5,1.9,4,1.9c0.5,0,1-0.1,1.5-0.3c5.1-1.6,502.9-140.3,551.9-155
		c9.5-2.8,17-1.9,24.5,0.2l0.2,0.3c2.3,4.9,4.3,9.2,6.8,13.3c6.7,10.9,16.5,19.5,26.3,22.8c1.4,0.4,2.7,0.6,4.1,0.6
		c3.3,0,6.2-1.3,8.3-3.7C563.9,372.6,564.8,368.6,564.1,364.4 M-66.8,308.5c0.8-16.9,1.2-25.2,1.2-26.6c0-3.5-1.9-5.7-4.1-6.5
		c0.1,0.4,0.1,0.8,0.1,1.3c-0.1,2-0.8,17.9-1.7,34.2C-69.6,310.1-68.2,309.3-66.8,308.5 M-24.4,303.7c3-0.5,5.9-0.4,8.6,0.2
		C-2.5,288.8,5.9,269.5,4.3,246c-1.4-21.4-9-39.7-21.8-54c10.4,13.4,16.6,29.9,17.8,48.9c1.7,26.3-9,47.2-25.4,62.9
		C-24.8,303.8-24.6,303.8-24.4,303.7 M-85.5,440.7c4.3,9,7.1,17.9,7.5,26.3c1.4,29.9-17.3,49.5-50.1,52.5c-1.8,0.2-3.8,0.3-5.8,0.3
		c-24.6,0-55-12.2-56.3-12.8c-0.2,0-0.3-0.1-0.4-0.2l0.1,1.5c0.1,2,1.3,3.8,3.2,4.5c1.3,0.5,31.8,12.8,56.6,12.8
		c2,0,4.1-0.1,5.9-0.2c33.3-3.1,52.3-22.9,50.8-53.3C-74.4,462.6-78.9,451.8-85.5,440.7 M154.1,311.9c0,0.1,0,0.2,0,0.3l0.4-9.1
		c0-0.8,0.1-1.4,0.1-2.1c-1.8-3.9-4.1-7.3-6.8-10.1c-1.1-1.1-2.4-2-3.8-2.9c2.5,2.8,4.6,6.1,6.2,9.9
		C152,302.2,153.3,306.9,154.1,311.9 M224.7,299.6l0.4-12c0-1.3,0.1-2.6,0.1-3.8c-1.3-2.6-2.9-5.1-4.8-7.1c-1.6-1.8-3.5-3.1-5.5-4.2
		c4.8,5.3,7.9,12.9,9.2,22.7C224.4,296.6,224.6,298.1,224.7,299.6 M87.5,301.2c0.8-1.3,1.8-2.6,2.7-3.9c-0.6-0.8-1.2-1.6-1.9-2.3
		c-0.9-0.9-2.2-1.6-3.6-2.2c1.4,2.1,2.4,4.7,2.7,7.6C87.5,300.6,87.5,300.9,87.5,301.2 M-171.3,316.7c-4.7-12.9-7.5-25.3-9.2-37.1
		c-4.4-31.1,0.4-56.2,13.7-72.5c11.5-14,29.3-21.8,53-23.3c1.9-0.1,3.7-0.2,5.5-0.2c28.3,0,50.8,14.1,62.7,37.5
		c-11.1-27-35.1-43.5-65.8-43.5c-1.8,0-3.7,0.1-5.6,0.2c-23.9,1.4-42,9.4-53.6,23.5c-13.5,16.5-18.3,41.8-13.9,73.1
		C-182.4,288.7-178.3,302.3-171.3,316.7 M-24.9,381.2c0.4,0.4,0.7,0.7,1,0.9c-0.4-1.2-0.8-2.6-1-4.2c-0.6-3.3-0.8-7.5-0.7-12.4
		c0.1-5,0.7-9.8,1.7-14.4c1-4.5,2.5-8.4,4.4-11.7c1.9-3.2,3.8-3.9,5-4.1c0.5-0.1,0.9-0.2,1.4-0.2c0.8,0,1.4,0.2,2,0.5
		c-0.6-2.2-1.4-3.9-2.5-4.9c-0.8-0.8-1.6-1.1-2.8-1.1c-0.4,0-0.9,0.1-1.4,0.1c-1.2,0.2-3.1,0.9-5,4.1c-1.9,3.3-3.4,7.2-4.4,11.7
		c-1,4.6-1.6,9.5-1.7,14.4c-0.1,4.9,0.1,9.1,0.7,12.4C-27.5,376.5-26.4,379.4-24.9,381.2 M-54.2,417.1c0.1-0.3,0.1-0.7,0.2-1.1
		l0.7-15.8c1.9,4.2,4.3,7.7,7.2,10.6c4.9,4.9,10.6,7.4,17.1,7.4c1.8,0,3.6-0.2,5.5-0.6c6.2-1.3,12.1-4.8,17.5-10.2
		c1.7-1.8,3.3-3.9,4.7-6.2c0.9,1.2,2,2.3,3.3,3.4c2.7,2.2,6.8,3.4,12.1,3.4c2.7,0,4.7-0.3,5.3-0.4c3.2-0.6,5.3-3.3,5.4-6.7
		c0-1-0.1-2-0.4-3.7c-0.3-1.5-0.6-3.4-0.8-5.3c-0.4-3.7-0.4-8.9,0-15.6l3-64.5c0.3-2.5-0.6-4.7-2.7-6.1c-0.4-0.3-0.9-0.5-1.3-0.6
		c0.1,0.5,0.1,1,0,1.6l-3,64.6c-0.3,6.7-0.3,11.9,0.1,15.7c0.2,2,0.5,3.9,0.8,5.4c0.3,1.7,0.5,2.6,0.4,3.5c-0.1,3.1-2,5.4-4.8,6
		c-0.4,0.1-2.5,0.4-5.1,0.4c-5.2,0-9.1-1.1-11.7-3.2c-1.6-1.3-2.8-2.8-3.8-4.3c-1.5,2.7-3.3,5.1-5.2,7.2c-5.3,5.4-11,8.8-17.1,10
		c-8.3,1.7-15.8-0.5-21.9-6.6c-3.3-3.3-5.9-7.6-7.8-12.7c-0.2-0.1-0.4-0.1-0.6-0.2c0.1,0.5,0.1,1.1,0,1.7l-0.7,16.9
		c0,0.3-0.1,0.6-0.2,0.9c-0.8,2.9-2.6,4.3-3.9,5c-4.8,2.3-9.2,3.8-13.2,4.6c-9.9,2-17.9-0.2-23.7-6.6c-1.1-1.2-2-2.5-2.8-3.9
		c1.3,3.8,3.1,7,5.4,9.6c4.6,5,10.5,7.5,17.5,7.5c2.2,0,4.5-0.2,6.9-0.7c4-0.8,8.4-2.4,13.4-4.7C-57,421.8-55,420.2-54.2,417.1"/>
	<path class="st1" d="M432.4,293.4c1.3,3.5,3,6.3,5.1,8.7c2.1,2.3,4.5,4,7.3,5c2.8,1.1,5.9,1.2,9.3,0.5c3.7-0.7,6.9-2,9.6-3.8
		c2.7-1.8,4.7-3.8,6-6c0.3-0.6,0.6-1.1,0.7-1.7c0.2-0.5,0.2-1.3,0.3-2.5l0.6-11.6c0-0.8-0.1-1.4-0.3-1.7c-0.3-0.3-0.5-0.4-0.7-0.3
		c-0.4,0.1-0.8,0.5-1.2,1.2c-1.3,2.3-3,4.2-5.4,5.8c-2.3,1.6-4.8,2.7-7.4,3.2c-3.6,0.7-6.4-0.1-8.4-2.3c-2-2.3-3.2-5.3-3.7-9
		c-0.3-2.2-0.4-4.5-0.4-7c6.3-1.3,11.6-3.1,15.8-5.4c4.2-2.3,7.5-4.9,9.9-7.9c2.4-3,4-6.2,4.9-9.7c0.8-3.5,1-7.1,0.5-10.8
		c-0.6-4.5-2.3-8-5.2-10.8c-2.9-2.8-6.9-3.7-12-2.8c-5.3,0.9-9.8,3.2-13.7,7.1c-3.9,3.8-7,8.4-9.4,13.9c-2.4,5.5-4,11.5-4.8,17.9
		c-0.8,6.4-0.8,12.8,0,19C430.1,286.2,431,289.9,432.4,293.4 M448.6,244.6c2.3-3.8,5.1-6,8.4-6.6c1.5-0.3,2.6,0,3.4,0.9
		c0.8,0.9,1.3,2.2,1.5,3.9c0.2,1.6,0,3.2-0.5,4.8c-0.5,1.7-1.5,3.2-2.9,4.8c-1.4,1.5-3.3,3-5.6,4.2c-2.3,1.3-5.3,2.3-8.8,3.1
		C444.8,253.5,446.3,248.4,448.6,244.6"/>
	<path class="st1" d="M338.7,327.8c-0.1,0.6,0,0.9,0.3,1.1c0.3,0.2,0.5,0.2,0.7,0.2l14.7-3c0.2,0,0.4-0.2,0.7-0.6
		c0.3-0.3,0.4-0.7,0.3-1.1l1.3-33.9c0.3-9.9,1.7-17.8,4.1-23.7c2.4-5.8,5-9,7.8-9.5c2.9-0.5,4.8,1.9,5.6,7.2c0.3,2.6,0.3,5.9,0,9.9
		l-1.5,46.4c-0.1,1,0.2,1.5,0.8,1.3l14.5-3c0.2,0,0.4-0.3,0.6-0.6c0.2-0.4,0.3-0.7,0.4-1.1l1.3-33.5c0.4-9.7,1.7-17.4,3.9-23.2
		c2.3-5.8,4.8-9,7.6-9.5c3.1-0.5,5,1.8,5.6,7c0.2,1.4,0.2,2.9,0.2,4.5c0,1.6,0,3.4-0.2,5.2l-1,30.1c-0.4,16.1,8.9,20.9,15.2,19.6
		c0.6-0.1,1-0.4,1.2-0.8c0.2-0.4,0.3-0.7,0.3-1c0,0-1.2-7.2-1-11.1c0.2-3.9,1.2-38.7,1.2-38.7c0.1-3.3,0.2-6.4,0.2-9.4
		c0-3-0.2-5.9-0.5-8.7c-0.8-5.8-2.6-9.9-5.2-12.3c-2.7-2.4-5.9-3.3-9.6-2.6c-4,0.7-7.7,3.4-11.2,8.1c-3.4,4.7-6,10.6-7.7,17.5
		c-0.1-2-0.3-3.8-0.6-5.5c-1.1-5.5-2.8-9.3-5.3-11.6c-2.5-2.2-5.2-3.1-8.1-2.5c-4.3,0.7-8.3,3.5-12,8.3c-3.8,4.8-6.6,11.5-8.4,20.1
		c0.1-1.8,0.1-3.7,0.1-5.8c0-2.1,0-4.1,0.1-6.1c0-1.9,0-3.7,0-5.2c-0.1-1.5-0.1-2.7-0.3-3.4c-0.2-1-0.5-1.4-1-1.3l-12.4,2.1
		c-0.5,0.1-0.7,0.6-0.8,1.5c-0.1,0.6-0.1,2.5,0.1,5.8c0.2,3.3,0.2,7.5,0,12.6L338.7,327.8z"/>
	<path class="st1" d="M274.3,315.1c1.2,8.7,3.8,15.3,7.8,19.9c4,4.6,8.7,6.3,14.2,5.2c4.2-0.9,8.1-3.4,11.8-7.5
		c3.7-4.1,6.2-10.3,7.6-18.6c0,1.4-0.1,3-0.1,4.8c0,1.9,0.3,7.4,4.4,11.2c3.1,2.9,10.4,1.9,10.4,1.9c0.7-0.1,1-0.7,1-1.7
		c0.1-0.7-0.7-3.8-1-7.4c-0.3-3.6-0.3-8.4-0.1-14.5l2.4-57.7c0.1-0.6,0-1-0.3-1.2c-0.3-0.2-0.6-0.3-0.9-0.3l-14.3,2.5
		c-0.7,0.1-1.1,0.7-1,1.8l-0.1,14.9c-0.5-2.5-1.1-4.9-2-7.1c-0.9-2.2-2-4.1-3.4-5.7c-1.4-1.5-3-2.7-4.9-3.5c-1.9-0.7-4-0.9-6.4-0.5
		c-5,0.9-9.4,3.5-13,7.7c-3.6,4.3-6.4,9.5-8.5,15.6c-2.1,6.1-3.5,12.7-4.1,19.7C273.3,301.9,273.5,308.6,274.3,315.1 M291.5,298.1
		c0.1-4.6,0.6-9.2,1.5-13.7c0.9-4.4,2.2-8.3,3.9-11.6c1.8-3.3,4-5.2,6.7-5.7c2.8-0.5,5,0.2,6.8,2.1c1.8,1.9,3,5,3.5,9.2
		c0.4,3.3,0.6,6.9,0.5,10.9l-0.2,5.5c-0.3,9.3-1.6,16.1-4,20.5c-2.3,4.4-5.1,6.9-8.3,7.5c-2.6,0.5-4.7-0.4-6.4-2.7
		c-1.7-2.3-2.9-5.7-3.5-10C291.6,306.8,291.4,302.8,291.5,298.1"/>
	<path class="st1" d="M227.1,350.7c0,1,0.3,1.5,1.1,1.4l16-3.3c0.2,0,0.5-0.3,0.8-0.7c0.3-0.4,0.4-0.8,0.4-1.1l1.6-36.9
		c0.5-10,1.7-17.4,3.7-22.2c2-4.7,4.3-7.4,6.9-7.8c1.3-0.2,2.3-0.1,2.9,0.4c0.6,0.5,1.1,1.1,1.6,1.8c0.5,0.6,1.1,1.2,1.7,1.8
		c0.6,0.5,1.6,0.6,3.1,0.4c1.3-0.2,2.5-0.9,3.5-2c1-1.1,1.9-2.5,2.5-4.1c0.6-1.6,1.1-3.5,1.4-5.4c0.3-1.9,0.3-3.9,0-5.9
		c-0.3-2.9-1.3-5.2-2.9-6.9c-1.7-1.7-3.9-2.3-6.9-1.8c-4.3,0.7-8.1,3.8-11.6,9.3c-3.5,5.5-6.1,12.5-7.9,21.2
		c0.1-1.8,0.2-3.9,0.2-6.1c0.1-2.2,0.1-4.4,0.1-6.4c0-2.1-0.1-4-0.2-5.7c0-1.7-0.1-3.1-0.3-4.3c0-0.3-0.2-0.7-0.3-1
		c-0.2-0.3-0.4-0.5-0.7-0.4l-13.4,2.3c-0.3,0-0.5,0.3-0.6,0.6c-0.1,0.4-0.1,0.7-0.2,1.1c-0.1,0.6-0.1,2.6,0.1,5.9
		c0.2,3.3,0.2,7.7,0,13.1L227.1,350.7z"/>
	<path class="st1" d="M82.9,348.8c0.7,4.8,2,9.1,3.8,13.1c1.7,4,4,7.3,6.8,9.9c2.8,2.6,5.9,4.5,9.7,5.6c3.7,1.1,7.8,1.2,12.5,0.2
		c7.1-1.5,13-4.5,17.8-9.3c4.7-4.7,8.4-10.2,11.2-16.4c2.7-6.3,4.5-12.9,5.3-19.8c0.8-7,0.8-13.5-0.1-19.6c-0.7-4.7-1.9-9-3.5-12.9
		c-1.7-3.9-3.9-7.2-6.5-9.9c-2.6-2.7-5.7-4.7-9.3-5.9c-3.6-1.2-7.7-1.4-12.2-0.6c-7,1.2-13,4.1-18,8.8c-5,4.7-8.9,10.2-11.7,16.5
		c-2.8,6.3-4.7,13.1-5.7,20.1C82,335.9,82,342.6,82.9,348.8 M103.1,333.9c0.2-5.2,0.9-10.1,2-14.7c1.1-4.7,2.8-8.7,4.9-12.2
		c2.1-3.5,4.8-5.5,8.1-6.1c3.1-0.6,5.7,0.4,7.6,2.9c1.9,2.5,3.2,6.1,3.9,10.8c0.6,4.2,0.8,8.9,0.5,14c-0.3,5.1-1,10-2.1,14.5
		c-1.1,4.6-2.7,8.5-4.8,11.8c-2.1,3.2-4.6,5.2-7.7,5.8c-3.3,0.7-5.9-0.2-8-2.7c-2-2.5-3.3-5.9-3.9-10.5
		C103.2,343.5,102.9,339,103.1,333.9"/>
	<path class="st1" d="M-62.3,410.6l0.8-17.2c0.1-0.8,0-1.3-0.4-1.5c-0.4-0.2-0.9,0-1.4,0.5c-1.9,1.5-3.9,2.5-5.8,2.9
		c-3.6,0.7-6.2,0.2-7.8-1.6c-1.6-1.8-2.3-5.2-2-10.2c0,0,1.4-27.8,2.7-55c29-9.2,75.7-35.7,72.3-87.3
		c-3.6-54.6-49.3-86.4-117.3-84.3c-66,2-115,53-102.2,120.9c9.3,49.7,30.1,70.3,58.9,102.3c28.3,31.5,59.5,65.2,60.5,85.5
		c1,20.3-12.2,28.7-27,27.7c-25.2-1.8-59.2-29.6-59.2-29.6l1.8,39.2c0,0,35.5,14.4,60.1,12.2c28.7-2.6,47.5-18.7,46.2-47.9
		c-1.5-31.2-38.7-69.8-62.5-101c-23.8-31.2-39.5-58.9-44-91c-7.6-54.1,10.5-98,71.5-101.6c46.5-2.8,76.9,27.6,82,70.3
		c4.8,40.1-15.6,64.4-40.6,74c1.1-20.9,1.9-39.2,2-41c0-1.3-0.5-1.9-1.4-1.7l-20.3,3.2c-0.9,0.1-1.4,0.9-1.4,2.2
		c-0.1,0.8-1,20.1-2,42.1c-10.7,0.4-19.9-1.1-19.9-1.1l-1.5,10.4c0,0,10.8,1.1,20.9,0.8c-1.3,26.7-2.6,53.6-2.6,53.6
		c-0.6,11.9,1.5,20.5,6.3,25.7c4.7,5.2,11.3,7,19.6,5.2c3.6-0.8,7.6-2.2,12-4.2C-63.2,412.4-62.6,411.7-62.3,410.6"/>
	<path class="st1" d="M555.7,359.9c-0.4-2.9-1.4-5.7-2.8-8.3c-4.5-8.2-13.8-16.9-25.5-23.8c-0.2-0.8-0.3-1.7-0.4-2.5
		c-1.8-17.4-1.3-40.9-0.6-60.9c0-0.2,0.1-0.3,0.2-0.5l0.8-20.7c0.1-2.7,0.1-5.1,0-7.2c-0.1-2-0.3-4.2-0.6-6.4
		c-0.7-5.9-2.4-10-5.1-12.3c-2.6-2.3-5.6-3.2-9-2.6c-4.1,0.7-7.9,3.4-11.5,8c-3.6,4.6-6.2,10.9-7.8,18.7c0.1-1.7,0.1-3.5,0.2-5.5
		c0-2,0.1-3.8,0.1-5.6c0-1.8,0-3.4,0-4.8c0-1.4-0.1-2.5-0.2-3.2c-0.2-0.9-0.5-1.4-0.9-1.3l-11,1.9c-0.6,0.1-0.8,0.6-0.7,1.4
		c-0.1,0.5-0.1,2.4,0,5.5c0.1,3.1,0.1,7.1-0.1,11.9l-2,57c-0.1,0.6,0,0.9,0.3,1.1c0.3,0.2,0.5,0.2,0.6,0.2l13.2-2.7
		c0.3,0,0.5-0.2,0.7-0.6c0.2-0.4,0.2-0.7,0.2-1l1.1-32.2c0.4-9.6,1.7-17.1,3.9-22.5c2.3-5.4,4.9-8.4,7.8-8.9
		c1.4-0.2,2.7,0.2,3.7,1.2c1.1,1.1,1.7,2.9,2,5.4v0.1c-0.2,23-2.7,52.1,1.4,83.9c-9.8-2.8-19.7-2.3-31.7-0.8
		c-0.9,0.1-1.7,0.3-2.5,0.4c-10.9,1.8-164.3,37.6-305.6,70.7c0.3-8.9,0.7-17.5,0.8-21.5c0.3-9,0.4-17.7,0.3-26.2
		c0.4,2.6,1.1,5.1,2.1,7.3c1,2.2,2.2,4.1,3.7,5.6c1.5,1.5,3.2,2.5,5.2,3.2c2.1,0.6,4.3,0.7,6.8,0.2c5.5-1.1,10.1-3.9,13.9-8.5
		c3.8-4.5,6.8-10,9-16.3c2.2-6.3,3.7-13.2,4.3-20.4c0.7-7.2,0.6-14.2-0.4-20.8c-1.2-8.9-3.9-15.7-8.2-20.3
		c-4.3-4.7-9.4-6.5-15.2-5.5c-5,0.9-9.4,3.6-13.2,8.1c-3.8,4.5-6.4,11-7.9,19.3c0.2-3.6,0.2-7.3,0.1-11.1c-0.1-3.8-0.3-6.4-0.4-7.8
		c-0.2-1.1-0.6-1.5-1.1-1.4l-14.1,2.5c-0.8,0.1-1.1,0.7-1,1.8c-0.1,0.8,0,3,0.2,6.8c0.2,3.8,0.2,8.9-0.1,15.4l-4,94.4
		C38,425.1-67.7,450-67.7,450s4,10.4,4.3,18.8c0.4,10.2-1.8,18.1-1.8,18.1s500.8-140.4,552.4-155.1c9.6-2.7,19-2.3,29.2,1
		c2.8,6,5,10.8,7.7,15.2c6.3,10.4,15.2,17.8,23.5,20.6C553.1,370.3,556.9,366.3,555.7,359.9 M177.1,317.6c0.3-9.8,1.8-17,4.3-21.8
		c2.5-4.7,5.5-7.4,8.9-8c2.8-0.5,5.1,0.5,7,2.8c1.9,2.4,3.2,5.8,3.8,10.2c0.5,3.4,0.6,7.6,0.5,12.4c-0.1,4.9-0.6,9.6-1.6,14.2
		c-0.9,4.7-2.3,8.7-4.2,12.2c-1.9,3.5-4.3,5.5-7.3,6.2c-6.3,1.3-10-2.4-11.1-11.1c-0.4-3.3-0.6-7.1-0.5-11.3L177.1,317.6z
		 M545.2,359.2c-3.8-1.8-6-3.8-9.5-8.7c-2.3-3.2-4.6-7.5-6-12.7c4.6,2.3,9.5,6.8,14,12.4c1.5,1.8,2.7,3.5,3.9,6.3
		C548.5,358.8,547.9,360.7,545.2,359.2"/>
	<path class="st1" d="M-9.5,312.2c-1.8-1.7-3.8-3-6.2-3.8c-2.4-0.8-5-0.9-8-0.4c-6.4,1.1-11.9,4.1-16.4,9
		c-4.5,4.9-8.1,10.8-10.7,17.7c-2.6,6.9-4.4,14.3-5.2,22.3c-0.8,7.9-0.7,15.5,0.5,22.8c1.5,9.8,4.8,17.1,9.9,22.2
		c5,5.1,11,6.8,17.9,5.4c5.2-1.1,10.2-4,14.8-8.8c4.6-4.7,7.8-11.8,9.6-21.1c-0.1,1.5-0.1,3.3-0.1,5.4c0,2.1,0.4,8.3,5.5,12.5
		c3.9,3.2,13.1,1.9,13.1,1.9c0.8-0.2,1.3-0.8,1.3-2c0.1-0.8-0.9-4.3-1.2-8.3c-0.4-4-0.4-9.4-0.1-16.3l3-64.8c0.1-0.7,0-1.1-0.4-1.4
		c-0.3-0.2-0.7-0.3-1.1-0.3l-18,3.1c-0.9,0.2-1.3,0.9-1.3,2.1l-0.2,16.7c-0.6-2.8-1.4-5.4-2.5-7.9C-6.3,316-7.7,313.9-9.5,312.2
		 M-5.2,355.9c-0.4,10.5-2,18.1-5,23.1c-2.9,4.9-6.4,7.8-10.4,8.6c-3.2,0.7-5.9-0.3-8.1-2.8c-2.2-2.6-3.7-6.3-4.4-11.1
		c-0.7-3.7-0.9-8.2-0.8-13.5c0.1-5.3,0.7-10.4,1.9-15.4c1.1-5,2.8-9.4,4.9-13.2c2.2-3.8,5.1-6,8.5-6.6c3.5-0.6,6.3,0.2,8.6,2.3
		c2.2,2.2,3.7,5.5,4.4,10.2c0.5,3.7,0.7,7.8,0.6,12.2L-5.2,355.9z"/>
	<path class="st1" d="M29,391.6c0,1.1,0.4,1.6,1.2,1.5l18.5-3.8c0.2,0,0.5-0.3,0.9-0.7c0.3-0.5,0.5-0.8,0.4-1.2l1.9-39.6
		c0.5-10.8,1.9-18.7,4.3-23.9c2.3-5.1,5-8,7.9-8.5c1.5-0.3,2.6-0.1,3.3,0.4c0.7,0.6,1.3,1.2,1.8,1.9c0.6,0.7,1.2,1.3,1.9,1.9
		c0.7,0.5,1.9,0.7,3.5,0.4c1.5-0.3,2.9-1,4.1-2.2c1.2-1.2,2.2-2.7,2.9-4.5c0.7-1.8,1.2-3.7,1.5-5.8c0.3-2.1,0.3-4.2,0-6.3
		c-0.4-3.1-1.5-5.6-3.4-7.4c-1.8-1.8-4.5-2.4-7.9-1.8c-4.9,0.9-9.4,4.2-13.4,10.1c-4,5.9-7,13.5-9.1,22.8c0.1-2,0.2-4.2,0.3-6.6
		c0-2.4,0.1-4.7,0-6.9c0-2.2,0-4.3-0.1-6.1c-0.1-1.9-0.2-3.4-0.3-4.6c-0.1-0.3-0.2-0.7-0.4-1c-0.2-0.3-0.5-0.5-0.8-0.4l-15.4,2.7
		c-0.4,0.1-0.6,0.3-0.7,0.7c-0.1,0.4-0.2,0.8-0.2,1.2c-0.1,0.6-0.1,2.8,0.1,6.4c0.2,3.6,0.2,8.3,0,14L29,391.6z"/>
	<polygon class="st0" points="416.8,393.4 384.6,400.5 378.6,408.4 387.6,412.7 	"/>
	<polygon class="st0" points="-34.2,520.8 -1.1,518.7 7,508.9 -4.1,506.5 	"/>
	<polygon class="st2" points="21.8,521 21.8,494.1 37.4,489.7 37.4,493.8 26.2,497 26.2,504 36.3,501.2 36.3,505.2 26.2,508.1 
		26.2,515.6 37.4,512.4 37.4,516.6 	"/>
	<path class="st2" d="M55.6,511.9c-2.9,0.8-5.8,0.5-8-0.4l1.5-4.6c2,1,4.5,1.3,6.6,0.6c2.7-0.8,3.9-2.8,3.9-4.6
		c0-1.9-0.8-2.8-4.8-3.5c-4.5-0.7-6.1-2.7-6.1-5.9c0-3.9,3.1-8.4,8.4-9.9c2.5-0.7,4.9-0.5,6.4,0.1l-1.4,4.4c-1.4-0.6-3.4-1-5.1-0.5
		c-2.7,0.8-3.9,2.7-3.9,4.5c0,1.8,1.3,2.5,4.4,3.1c5.1,0.9,6.5,2.6,6.5,6.2C64.1,505.8,60.9,510.4,55.6,511.9"/>
	<polygon class="st2" points="85.5,480.3 85.5,503 81.2,504.3 81.2,481.6 73,483.8 73,479.7 93.7,473.9 93.7,478 	"/>
	<path class="st2" d="M95.8,495.7c1.3-0.4,2.3,0.4,2.3,1.7c0,1.4-1,2.7-2.3,3.1c-1.3,0.3-2.3-0.4-2.3-1.8
		C93.5,497.4,94.5,496.1,95.8,495.7"/>
	<polygon class="st2" points="125.2,492.2 125.2,465.3 129.6,464 129.6,490.9 	"/>
	<polygon class="st2" points="162.8,482.1 146.7,468.9 146.7,486.1 142.3,487.3 142.3,460.1 143,459.8 158.9,472.8 158.9,455.8 
		163.2,454.6 163.2,481.8 	"/>
	<path class="st2" d="M198,460.3c-1.1,0.3-2.2,0.5-3.3,0.8v11.3l-5.6,1.6v-34.5c3-1.2,5.7-2.2,8.4-2.9c9.1-2.6,13.7,1.4,13.7,7.8
		C211.2,451.6,206.5,457.9,198,460.3 M198.4,441.9c-1.3,0.3-2.5,0.8-3.7,1.3v12.7c1.2-0.2,2.2-0.4,3.2-0.7c5.1-1.5,7.5-4.9,7.5-8.8
		C205.4,442.9,203,440.6,198.4,441.9"/>
	<path class="st2" d="M237.6,460.4l-5.6-8.1c-0.4,0.2-0.9,0.3-1.4,0.4c-0.8,0.2-1.7,0.5-2.6,0.7v9.7l-4.4,1.2v-26.6
		c2-0.8,4.1-1.6,6.8-2.3c7.3-2,10.5,0.7,10.5,5.5c0,3.5-1.8,6.8-5,9.2l6.7,8.9L237.6,460.4z M231,439.3c-1,0.3-2,0.6-2.9,1v9.2
		c0.8-0.1,1.7-0.3,2.5-0.6c3.8-1.1,5.7-3.5,5.7-6.6C236.3,439.6,234.4,438.3,231,439.3"/>
	<path class="st2" d="M269.5,451.4l-2.5-5.4l-10.1,2.9l-2.5,6.9l-4.5,1.3l11.8-30.6l0.6-0.2l11.8,23.9L269.5,451.4z M261.9,434.7
		l-3.6,10l7.3-2L261.9,434.7z"/>
	<path class="st2" d="M305,427.1v11.7c-2.7,2.6-5.7,4.6-9.5,5.6c-7.3,2.1-13.6-1.7-13.6-10c0-8.4,6.4-15.7,13.6-17.7
		c3.8-1.1,6.5-0.7,9.1,0.2l-2,4.2c-2.1-0.8-4.5-1-6.9-0.3c-5.8,1.7-9.1,6.9-9.1,12.3c0,5.7,4,8.6,9.1,7.2c2.2-0.6,3.7-1.4,5.2-2.7
		v-5.3l-6,1.7v-4L305,427.1z"/>
	<path class="st2" d="M326.7,435.7c-6.4,1.8-10.2-0.9-10.2-7.9v-16.6l4.3-1.2v16.2c0,4.6,2.2,6.3,5.9,5.2c3.7-1,5.9-3.9,5.9-8.5
		v-16.2l4.4-1.2V422C337,428.9,333,433.9,326.7,435.7"/>
	<polygon class="st2" points="349.2,428.9 349.2,402 364.9,397.6 364.9,401.8 353.6,405 353.6,412 363.8,409.1 363.8,413.2 
		353.6,416 353.6,423.5 364.9,420.3 364.9,424.5 	"/>
	<path class="st3" d="M540.5,193.3c5.9,0,10.6,4.7,10.6,10.6c0,6.1-4.6,10.8-10.6,10.8c-6,0-10.8-4.7-10.8-10.8
		C529.6,198,534.4,193.3,540.5,193.3L540.5,193.3z M540.3,195.1c-4.7,0-8.4,4-8.4,8.8c0,5,3.6,8.8,8.5,8.8c4.7,0.1,8.3-3.9,8.3-8.7
		C548.7,199.1,545.1,195.1,540.3,195.1L540.3,195.1z M538.5,209.8h-2v-11.2c1.1-0.2,2.3-0.3,3.8-0.3c1.8,0,2.8,0.3,3.5,0.9
		c0.6,0.5,1.1,1.3,1.1,2.4c0,1.3-1,2.2-2.1,2.6v0.2c0.9,0.4,1.5,1.3,1.8,2.7c0.3,1.7,0.6,2.3,0.9,2.8h-2.1c-0.3-0.4-0.6-1.4-0.9-2.9
		c-0.2-1.3-1-1.8-2.5-1.8h-1.4V209.8z M538.5,203.5h1.4c1.5,0,2.8-0.5,2.8-1.7c0-1.1-0.7-1.9-2.6-1.9c-0.8,0-1.2,0.1-1.6,0.1V203.5z
		"/>
	<path class="st0" d="M99.3,203.7c-0.8,1.6-1,5-0.9,5.7c0.6,0.2,3.1,0.7,4.5,0.8c-0.5-1.4-0.7-4,0.8-6.1
		C102.3,204.1,100.3,203.9,99.3,203.7 M98.8,195.9c-1.2,0-3.8,0-6.6-0.9c-0.8,1.4-1,4.7-0.8,5.2c0.4,0.4,3.3,1.5,6.4,1.7
		C97.3,199.7,98.3,197.1,98.8,195.9 M131,189.6L131,189.6c1.6,1.3,3.6,2.6,4.1,3l3.5-0.5c-0.3-0.2-0.9-0.6-1.8-1.1
		c-2.2-1.3-5.5-2-7.1-2.3C130.1,189,130.5,189.3,131,189.6 M124.4,111c-0.1,0.3-0.1,0.6-0.2,0.9c-0.1,0.5-0.3,1.4-0.3,1.4
		c0.1,0,0.6-0.2,2-1.7c0.2-0.2,0.3-0.4,0.5-0.6c-0.5-0.6-1-1.4-1.5-2.1C124.7,109.8,124.6,110.5,124.4,111 M124.1,178.6
		c0.8-0.1,1.9-0.2,3.2-0.2c-2.9-3.1-5.2-6.1-7-8.9C121.3,173.5,123.1,176.8,124.1,178.6 M115.7,188.5c2.2-1.4,6.9-2.2,10.2-2.4
		c2.8-0.1,6.2,0,10.1,1.5c1.9,0.8,3.5,1.5,4.7,2.3c-0.1-0.2-0.3-0.4-0.4-0.6c-1.2-0.7-2.3-1.5-3.3-2.3c-2.5-1.9-4.6-3.7-6.5-5.5
		c-1-0.1-2-0.1-3-0.1c-6.1,0.3-11,1.7-12.9,2.5c-2.5,1-5,0.3-7.1-1.9c-2-2.1-5.4-4.5-8.8-4.9c-3-0.4-5.8,0.4-7.6,2.2
		c-1.4,1.4-2.1,2.7-2.2,3.1c1.4,0.3,3.1,0.6,3.1,0.6c0.7,0.2,2.3,0.6,4.4,0c2.8-0.7,4.4-0.4,5.5-0.1c2,0.6,2.6,1.7,2.6,1.7l0.5,0.8
		l-0.9-0.2c0,0-1.7-0.2-3.5-0.2c-1.7,0.1-4.1,1-5,2.5c-0.9,1.5-1.6,3.9-1.6,4.5c0.5,0.3,2.9,1,3.6,1c0.7,0,2.2-0.2,2.9-0.4
		c1.7-0.6,2.1-0.9,3.2-1.4c1.2-0.5,2.5,0.2,2.5,0.2s-2.1,1.1-3.8,2.8c-2.5,2.4-2,6.1-1.9,7c0.7,0.3,4.8,0.6,6.2-0.1
		c2.3-1.1,3.1-2.7,3.2-2.7c0,0,0.6,2.1-1,3.6c-1.5,1.4-2.7,2.5-3.1,4.7c-0.4,2.1,0,3,0.2,3.3c0.5,0,2.3-0.6,3.9-1.7l0.3-0.2
		c1.8-1.2,5.3-3.6,5.4-9.6c0-2.8-0.5-4.6-1-5.9C114,191,113.7,189.9,115.7,188.5 M91.4,192.3c0.2-2.3,1.3-5.1,2.4-6.6
		c-1.7,0.2-3.5-0.2-5.5-1.1c-0.7,1.5-1.4,5.2-1.4,5.8C87.3,190.9,89.7,192.1,91.4,192.3 M241.2,56.4c-0.2,1.2-0.5,2.3-0.8,3.2
		c-0.3,0.6-0.5,1.3-0.5,2.2c0.1,1.1,0.3,2.3,0.8,3.2c1.2,2.4,1.7,3.7,2,5.2c0.3,1.3,0.3,2.2,0.2,2.7v0.1c0.4-1,1.2-2.1,2-3
		c1.2-1.3,2.2-3.5,2.5-5.1c0.3-2-0.2-4.2-0.8-6.1c-1-2.5-2.4-5-4-7.1c-1.4-1.8-2.6-2.5-3.8-3.5c0.3,0.6,0.8,1.2,1.1,1.9
		C241,52.8,241.5,54.9,241.2,56.4 M248.2,112.7c-2.6,5.3-4.5,7.7-7.2,9.4c-0.8,0.5-1.5,0.9-2,1.2c-1.3,0.7-2,1-2.2,2.1
		c-0.2,0.6-0.4,1.5-0.7,2.5c-0.3,1.4-0.7,3.2-1.3,5.2l-0.9,2.9c-0.3,0.9-0.6,1.9-0.8,2.6c0.4-0.4,0.7-0.9,1.2-1.4
		c1.3-1.2,5.7-6,8.1-8.9c2.5-3,6.6-8.3,9.1-11.8c2.7-3.7,7.7-13.1,9.2-17c1.4-3.5,2.5-8.3,2.9-10.4c-0.7,1.6-2.2,4.5-5,7.5
		c-2.6,2.8-6.2,5.7-6.9,6.2C251.4,103.9,250.5,108,248.2,112.7 M245.3,91.4c-2.2,1.6-4.7,3.8-5.3,5.1c-0.5,1.2-0.8,2.8-1.1,4
		l-0.2,0.7c-0.2,0.6-0.5,1.7-0.7,2.6c0.6-0.5,1.4-1.1,2-1.5c0.3-0.2,0.8-0.5,1.4-0.8c1.3-0.7,3.1-1.7,3.8-2.4
		c0.9-0.9,2.4-2.8,3.5-5.2l0.7-1.6c0.9-1.8,1.7-3.7,2.3-5.7c0.4-1.1,0.7-2.5,1.1-3.8c0.3-1,0.5-2,0.8-2.8c-0.9,1.5-2.6,4.6-3.6,6.7
		C248.7,89,247.3,90,245.3,91.4 M250.5,77c-1.1,1.4-2.4,3-4.9,5.3c-2.4,2.2-4.1,4-4.7,5.9c-0.4,1.4-1,3.7-1.2,5.1
		c0.2-0.3,0.5-0.6,0.8-1c0.9-0.9,2.8-2.2,3.7-2.8c1.8-1.1,3.4-2.9,4.5-5.4c1.6-3.3,2.5-5.5,3.3-8.6c0,0,0.4-1.6,0.5-1.9
		C252,74.9,250.5,77,250.5,77 M244.5,74.1c-1,1.5-1.4,3.4-1.8,5.1c-0.2,0.9-0.5,2.8-0.8,4.1l2.7-2.9c2.9-2.4,3.9-4.3,4.8-6.7
		c1-2.6,1.4-5.5,1.7-8.2c0.1-0.9,0.1-1.8,0-2.7c0,0.7-0.7,2.8-0.7,2.8c-0.4,1.5-1.4,3.1-1.9,3.8c-0.5,0.7-1,1.4-1.6,1.9
		C246.2,72.2,245.2,73.1,244.5,74.1 M144.4,235.8c0,0.4,0,0.6,0.1,0.7c0.4-0.3,5.7-4.6,10.5-8.4c-1.5,0.3-3,0.6-4.5,0.9
		c-1.8,1.5-3.4,2.7-4.1,3.2C145,233.4,144.5,234.8,144.4,235.8 M246.7,147.6c0.2-0.2,0.3-0.5,0.5-0.6c0.8-1,2.2-4.9,2.4-7.7
		c0.1-3,0.5-4.7,1.3-6.9c0.5-1.8,1-2.4,1.4-3.1c0.1-0.2,0.3-0.5,0.4-0.7c0.2-0.2,0.2-0.4,0.3-0.6c-0.3,0.4-0.8,0.8-1.2,1.3
		c-1,1.1-1.6,2.6-2.6,4.8l-0.4,0.8c-0.9,1.9-1.9,2.9-2.8,3.8c-0.3,0.4-0.6,0.7-1,1c-0.6,0.8-2,2.7-2.2,4.7l-0.1,1.4
		c-0.2,1.6-0.3,3.5-0.6,5c-0.1,0.6-0.3,1.1-0.4,1.6c0.5-0.6,1.2-1.3,2-1.8C245.1,149.7,246,148.6,246.7,147.6 M95.4,204.4
		c-1.4-0.2-3.7-1-4.7-1.5c-0.4,1.1-0.9,3.6-0.9,4.1c0.3,0.4,2.7,2,5.8,2.3C94.9,207.4,95,205.5,95.4,204.4 M143.8,194.3
		c-2.9,0-5.7,0.5-9.3,1.1l-1.3,0.2l-1,0.2c-4.7,0.8-6.9,1.2-8.9,0.7c-0.7-0.1-1.3-0.4-1.8-0.6c0.3,0.4,0.6,0.8,1.1,1.2
		c0.8,0.7,2.3,1.6,3.9,2.3c5.3-1.8,11.7-3.2,18.2-4.4C144.3,194.9,144,194.6,143.8,194.3 M236.2,157.9c0.9-0.9,2-2.5,2.7-3.7
		c0.6-1,0.8-3.3,1-4.9l0-0.7c0.2-1.6,0.4-2.6,0.8-4.5c0.5-1.9,1.8-5.4,2.8-7.4l2.2-4.2c-0.5,0.6-1,1.4-1.5,2.3l-0.2,0.3
		c-0.5,0.8-1.1,1.9-1.8,2.9c-0.8,1.2-1.6,2.5-2.2,3.5c-1.1,2-2.7,4.7-3.9,6.5c-1.4,2.1-3.2,5.1-3.7,7.3c-0.6,2.3-0.7,3.9-0.7,5.6
		c0,0.7-0.1,1.3-0.3,1.9c0.3-0.3,0.5-0.6,0.8-0.9c0.4-0.6,1.3-1.4,2.2-2.3C235.2,158.9,235.9,158.3,236.2,157.9 M257.1,137.6
		c1.4-1.5,1.5-2.8,1.6-4.1c0-0.4,0.1-0.8,0.2-1.2c0.1-0.5,0.2-0.9,0.2-1.4c0.1-1,0.2-2.4,1-5.4c1.2-4.3,2.2-6.8,2.6-7.7l0-0.1
		c0.1-0.2,0.2-0.3,0.2-0.4c0,0,0,0-0.1,0.1c-0.2,0.4-1.1,1.5-2.3,3.5c-1.2,2.1-2.1,3-3.6,5.7c-1.7,2.9-2.8,6.3-3.5,7.8
		c-0.5,1.1-0.7,2.5-0.9,4.1c-0.1,0.8-0.2,1.6-0.3,2.4c-0.1,0.6-0.2,1.1-0.3,1.6c0.4-0.4,1-0.9,1.6-1.5
		C254.8,140,256.1,138.7,257.1,137.6 M173.3,42.1c5,1.4,9.7,3.6,13.7,6.6c0.7,0.5,1.3,1.1,2,1.6c0.5,0,1.1,0.1,1.7,0.2
		c0.7,0.1,1.2,0.3,1.7,0.4c-0.5-0.5-1-1-1.4-1.4l-0.5-0.5c-0.9-1-1.5-2.4-3.8-3.7c-2.2-1.3-5.2-1.8-7.7-2.3
		c-2.4-0.5-4.8-1.3-6.7-2.2c-1.3-0.7-2.8-1.4-3.5-1.7c0.5,0.3,1.1,1.1,1.5,1.4C171.1,41.1,172.1,41.6,173.3,42.1 M196.3,97.4
		c-0.6,1-1.1,2.1-1.5,3.1c-0.9,2.4-1.1,6.3-1,8.9c0-0.1,0-0.2,0-0.4c0.4-1.5,0.8-3.6,4.3-6.9c3.8-3.5,6.8-3.5,8.8-3.2
		c2.2,0.3,5.7,2.8,7.5,4.8c1.6,1.7,3.7,4.8,4.6,7.9l0.2,0.5c0.8,2.8,1.7,6.3,1.8,8.4c1.3,0.8,5.4,3.4,6.5,5.4
		c0.1,0.2,0.2,0.5,0.3,0.7c0.2-1.2,0.5-3,0.5-3.4c0-0.3-0.4-0.7-1.1-1.4c-0.3-0.3-1.2-1.2-1.2-1.2c-1.6-1.6-4.6-4.6-4.6-9.6
		c0-4,1-6.8,2-9.4c0.2-0.8,0.5-1.6,0.8-2.3c0.2-0.9-1.4-2.2-2.8-3.2c-0.2-0.2-0.4-0.3-0.6-0.5c-1.5-1.2-4-3.2-8.6-4
		c-3.2,3.1-7.1,4.6-10.5,4.6c-1,0-2-0.1-2.9-0.4C197.9,96.4,197.1,96.9,196.3,97.4 M215.3,87.4c-0.3,0.5-0.6,0.9-0.9,1.4
		c0.7,0.2,1.4,0.5,1.9,0.8c-0.2-0.4-0.3-0.9-0.5-1.3C215.7,88,215.5,87.7,215.3,87.4 M218.6,160.7c-0.4,0.3-0.7,0.5-1.1,0.7
		c-1.6,3-3.6,5.7-4.6,6.7c-0.5,2.2-1.4,4.2-2.5,6c-1.6,2.5-3.5,4.7-5,6.2c0.1-0.1,0.3-0.2,0.5-0.3c1.4-0.8,5.8-3.5,7.9-5.2
		c2-1.6,3.8-3.1,3.8-4.3c0-0.4-0.1-0.8-0.2-1.3c-0.3-0.8-0.5-1.7-0.3-3.2C217.4,164.2,217.9,162.4,218.6,160.7 M261.7,128
		c-0.2,0.5-0.3,1-0.3,1.4c0,0.2,0,0.3,0,0.5c-0.1,0.5-0.1,1.1-0.1,1.7c-0.1,1-0.1,2.1-0.2,3c-0.2,1.4-0.8,2.7-1.4,3.6
		c0.4-0.1,0.9-0.2,1.5-0.3c1.7-0.2,4.8-1.4,6.4-3.7c1.8-2.5,3.5-5.4,4.7-11.5c0.9-4.6,0.4-9,0-11.7c-0.1,1.2-0.3,3.2-1.4,5.3
		c-1.6,3-5.4,7.4-7.2,9.4l-0.2,0.2C262.6,126.8,262,127.4,261.7,128 M210.2,163.2c-0.4,0-0.8,0-1.3-0.1c-0.7,2.4-1.6,4.7-2.7,7.2
		c-2.1,4.8-6.6,11.4-11.5,15.6c0.7-0.4,1.4-0.8,1.9-1.2c3.6-2.2,8.9-8,10.8-10.7c1.6-2.4,3-5,3.6-10.9
		C210.8,163.2,210.5,163.2,210.2,163.2 M143.5,234.4c0,0-0.6,0.6-0.9,1c-1,1.3-2.1,2.3-1.8,4.2c0.6-0.5,1.5-1.2,1.9-1.6
		c-0.1-0.5-0.2-1.3,0.3-2.3C143.1,235.2,143.5,234.4,143.5,234.4 M105.2,80.2c0.9-0.7,2.1-1.3,3.3-1.7c0.6-1.8,1.4-3.2,2.3-4.2
		c-2.7,1.4-4.3,3.6-4.9,4.6C105.5,79.5,105.3,79.9,105.2,80.2 M195.3,190.3c1.8,0,3.4,0,5,0l0.6-0.3c6.8-3.4,12.3-6.6,15.7-9.2
		l3-2.3c2.8-2.1,4.3-3.2,4.9-3.4c0.8-0.2,1.9,0.1,3.2,0.4c0.3,0.1,0.6,0.2,0.8,0.2c1.2,0.3,3.2,0.5,5.2,0.2
		c2.2-0.3,7.2-2.5,10.4-4.6c1.6-1.1,3.2-2.3,4.8-3.5c1.7-1.3,3.4-2.6,4.8-3.4c1.4-0.8,2.6-1.6,3.6-2.2c-0.3,0.1-0.6,0.2-0.8,0.3
		c-0.7,0.2-1.2,0.4-2,0.8l-1.2,0.5c-1.6,0.6-2.4,1-5.2,1.6c-2.7,0.6-4.1,0.7-6.3,0.8h-0.2c-2.3,0.2-3.9,0.2-5.4,0.1
		c-1.3,0-2.9,0.3-4.7,1.1c-2.1,0.8-3.2,1.6-3.4,2.3c0,0.3,0,0.8,0.3,1.1c1.1,1.1,2.3-0.2,2.4-0.3c0,0,0.1-0.2,0.2-0.3
		c0.6,0.5,0.7,2.1-0.7,2.8c-1.9,0.8-3.7,0.2-4.7-1.3c-0.5-0.8-0.6-1.6-0.4-2.5c0.2-0.9,0.9-1.5,1.6-2.1c0.6-0.6,1.1-1.1,1.8-2.3
		l0.4-0.7c0.8-1.4,1.1-2.9,1.3-5.4c0.1-2.3,0.2-2.9,0.4-3.9c0.4-1.2,1.1-3,2.2-5.1c2-3.4,3.3-5.8,4.1-6.9c1-1.5,2.4-4,2.8-5.3
		c0.2-0.6,0.5-1.4,0.9-2.3c-0.7,1-1.4,2-2.1,2.9l-1.4,1.9c-0.7,0.9-1.4,1.7-2.2,2.6c-0.7,0.8-1.5,1.6-2.3,2.6l-2.5,3.2
		c-0.6,0.8-1.1,1.4-1.4,1.8c-0.3,0.4-1,1.2-1.8,2.1c-1.2,1.4-2.6,2.9-3.2,3.7l0,0c-1,1.3-3,3.9-3.6,6.5c-0.7,3.2-0.3,5.4,0,6.3
		c0,0.2,0.1,0.5,0.2,0.7c0.4,1.1,0.7,2.1,0.1,3c-0.5,0.6-2.1,2.3-6.9,5.7c-4.2,3-8.4,5.5-14.9,9l-6,3
		C193.4,190.4,194.3,190.3,195.3,190.3 M219.9,140.1c0.9,0.4,1.7,0.9,2.2,1.8c0.3,0.5,0.6,1.2,0.9,1.8c0.2-0.3,0.3-0.7,0.3-1l1-3
		c0.9-2.8,1.8-5.8,2.1-7.3l0.2-0.6c0.3-1.7,0.5-2.5-0.2-3.4c-0.7-1.2-1.8-2.5-4.1-4.2c-2.4-1.8-4.7-3.1-8-2.9c-3,0.1-5.4,1.1-7.7,3
		c0.4,0.7,0.8,1.4,1.2,2c0,0.1,0,0.2,0,0.2c1,0,2.3,0.4,3.8,1.4c4.3,2.7,7.3,7.1,8.1,12.1V140.1z M143.1,44.3
		c-0.5,0.1-1.1,0.2-1.6,0.2c-1.8,0.1-3.2-0.5-3.7-0.8l-1.7,0.9c0.5,0.4,1.4,1.1,3,1.7C140.4,45.6,141.7,44.9,143.1,44.3 M129.6,48.7
		c0.2,0.2,0.3,0.4,0.5,0.6c0.2,0.2,0.3,0.4,0.5,0.7c0.3,0.5,0.9,1.1,1.4,1.6c1-1,2-1.9,3-2.7c0.4-0.3,0.8-0.6,1.2-0.8
		c-1-0.4-2.1-0.9-3.2-1.6C131.7,47.2,130.2,48.3,129.6,48.7 M192.7,53.5c2,1.9,3.8,3.8,5.3,5.6c0.6,0,1,0.1,1.5,0.2
		c-0.7-1.2-1.9-3-3.3-4.2C195.3,54.4,194.1,53.9,192.7,53.5 M216.4,118.3c0.9,0.6,1.6,0.8,1.7,0.6c0.2,0,0.2-0.4,0.1-0.8
		c-0.2-2.1-1.4-6.1-2.8-9c-0.8-1.6-1.4-2.5-1.9-3c0,1.1,0.2,3.1,0.5,6.8C214.5,116.6,215.6,117.7,216.4,118.3 M205.6,67.9
		c-0.4-0.6-1.1-1.7-2.2-3.6c-0.7-1.2-2.1-1.8-3.1-2.2c1.5,2,2.7,3.8,3.7,5.6C204.9,67.8,205.4,67.8,205.6,67.9 M210.8,75
		c0.2-1.6-1.1-3-2.2-3.7c-0.7-0.4-1.7-0.8-3-1.1c1.7,2.9,2.9,4.9,4.3,6.3C210.3,76.3,210.7,75.9,210.8,75 M59.7,108.6
		c-0.2,0.3-0.5,2.6,0.4,4.1c1.3-1.1,3.5-1.2,4.6-1.2c-0.3-0.8-0.7-2.2-0.5-4.1C61.7,107.4,59.9,108.3,59.7,108.6 M85.1,192.7
		c-0.8,1.5-1.8,4.5-1.8,5.1c0.4,0.5,3.5,1.9,5.5,2.4c-0.3-2.2,0.3-4.6,0.6-5.6C88.5,194.4,86.4,193.6,85.1,192.7 M83.5,201.3
		c-0.1,1.3,0,3.1,0.2,3.5c0.3,0.5,2.5,1.4,3.9,1.7c0-1,0.1-2.9,0.4-4c-0.5-0.2-1.1-0.3-1.7-0.5C85,201.8,84.1,201.6,83.5,201.3
		 M73.7,111.7c-0.7-1.3-1-3.3-1.1-4.5c0-0.2,0-0.7,0-0.8c-3.2-0.7-5.5,0.2-5.8,0.6c-0.1,0.5,0.1,3.5,1,5.2
		C69.4,111.5,72.4,111.3,73.7,111.7 M54,116.5c-0.1,0.4,0.2,2.3,0.7,4.2c1.2-0.5,2.9-0.8,3.8-0.9c-0.2-0.9-0.6-2.7-0.2-4.3
		C56.6,115.2,54.4,116.1,54,116.5 M57.7,128.8c1-0.7,2.4-1,3.3-1c-1.1-1.4-1.1-4.3-0.9-5.7c-2.4-0.2-4.6,1-4.8,1.4
		C55.3,124.2,56.6,127.1,57.7,128.8 M61.3,120.4c1.4-0.8,4.1-1.2,5-0.7c0,0-0.1-0.1-0.1-0.1c-0.5-0.7-0.7-3.5-0.8-5.4
		c-2.1-0.9-4.8,0.3-5.1,0.7C60.3,115.5,60.6,119.4,61.3,120.4 M146.8,242.1c0.7,0,2-0.1,2.8-0.7c1.1-0.8,1.7-1.4,2.6-2.1l0.1-0.1
		c-0.7,0-1.2-0.3-1.5-0.5C149.8,239.6,147.7,241.3,146.8,242.1 M84.3,187.3c0.3-1.3,0.6-2.3,1.6-3.7c0.1-0.3,0.2-0.6,0.2-0.8
		c0.1-0.8,0.2-1.2,1.3-3.2c1.5-2.5,2.9-3.1,4.9-3.9l0.3-0.2c-0.3-1.6,0.1-3.2,1.1-4.6c1.6-2.1,4.2-3.1,6-3.1
		c3.2-0.1,8.6,1.3,12.2,4.1c4.6,3.6,8.3,6.6,9.1,7.3l0.2-0.1c-0.5-1-1.7-3.5-2.5-5.4c-0.9-2.2-1.7-4.9-1.9-5.3
		c-0.2-0.2-0.7-0.9-2.1-2.3c-1.7-1.6-3.6-4.7-5.6-7.3c-1.6-2.1-2.8-4.7-3.5-6.5c-0.2-0.7-0.7-2-1.1-3c-0.5-1.6-0.8-3.1-0.9-4.8
		c-0.3-4.3,1.4-7.1,3.3-10.1l0.4-0.7c1.9-3.1,2.5-3.2,4.8-2.8c0,0,1.2,0.2,1.7,0.3c2.8,0.6,7.5,1.4,11.4-0.2
		c4.8-1.9,6.1-3.4,7.4-5.3c0.8-1.1,1.3-3.4,1.3-3.5c-0.8,0.5-1.5,0.7-2.3,0.9c-1,0.3-2.5,0.4-2.5,0.4l0.7-0.9
		c0.7-0.9,1.9-2.8,2.8-4.8c0.1-0.2,0.1-0.5,0.2-0.7c-0.9-0.7-1.7-1.4-2.5-2.1c-0.2,0-0.4,0-0.5,0l-1,0.2l0.6-0.8
		c0-0.1,0-0.2,0.1-0.2c-0.6-0.6-1.3-1.3-1.9-1.9c-0.9,1.6-2.2,3-3.6,4c-0.9,0.6-1.5,0.7-1.8,0.7c-0.2,0-0.2,0-0.3,0.1
		c-0.3,0.3-1.4,1.6-2.3,2.7l-0.9,1.2c-0.3,0.4-0.4,0.7-0.3,0.8c0.1,0.2,0.7,0.3,1.5,0.1c1.4-0.3,3.9-1.3,4.9-1.9
		c1.2-0.7,2.6-0.9,2.7-0.9l0.9-0.2l-0.5,0.8c0,0-0.7,1.1-2.6,2.4c-1.9,1.3-4.5,2.2-5.8,2.3c-0.4,0-0.8,0-1.2,0c-0.3,0-0.8,0-1.1,0
		c1.2,1.5,3.1,2.3,5.4,2.7c1.4,0.3,3.6,0.2,3.6,0.2l-1.1,0.7c-2.9,1.5-5.5,1-7,0.1c-1.7-1-3.1-2.6-3.5-3.3c-0.2,0.1-0.7,0.3-1.4,0.7
		c-0.5,0.3-0.9,0.7-1.3,1c-0.5,0.4-0.9,0.7-1.4,0.9l-1,0.4l0.4-1c0.4-0.9,1.9-2.9,5-6.5l1.5-1.7c1.7-1.9,3.5-4,5-6.4
		c1.2-2,1.8-4.1,2.2-5.7c-0.5-0.8-1-1.6-1.4-2.5c-0.1-0.2-0.2-0.4-0.3-0.6v0.2c-0.2,0.8-0.6,3.2-2.8,7.4c-1.8,3.5-4,6.7-5.9,8.5
		c-1.8,1.7-4.5,2.9-6.6,0.8c-2.1-2.1-2.5-4.9-2.5-6.4c0-2.6-0.2-5.4-0.2-5.4s1.4,2,2.3,4.7c0.4,1.2,1.1,4.8,3.3,4.8
		c2.2,0,2.8-1,2.9-2c0.1-1.2-0.2-1.9-0.8-2.6c-1.2-1.4-1.8-2.3-2-3.9c-0.1-1.5,0.6-3,0.8-3.7l0.4-1l0.5,1c0.4,0.9,0.7,1.8,1.1,2.8
		l0.3,0.7c0.3,0.9,1.3,2.5,2.3,2.6c0.2,0,0.5,0,0.9-0.4c1.2-1.4,0.8-2.5,0.2-4.2l-0.2-0.3c-0.5-1.3-0.2-2.8,0.7-4l0.8-1.1v1.4
		c0,1.1,0.2,2.4,0.6,2.8c0.3,0.4,0.8,0.6,1,0.6c0.2,0,0.3-0.3,0.4-0.8c0.2-0.8,0.2-1.4,0.1-2c0-0.8-0.1-1.6,0.6-2.1
		c0.2-0.2,0.4-0.4,0.6-0.6c-0.5-1.1-0.9-2-1.2-2.8c-0.2,0-0.3,0-0.3,0l-0.4,0.1l-0.1-0.3c0-0.1-0.4-1.7-0.5-2.4c0-0.2,0-0.4-0.1-0.5
		c-0.6,1.1-1.4,1.8-2,2.6c-0.5,0.6-1.2,1.4-1.7,2c-0.9,1.1-2.3,1.9-2.3,1.9s-0.4-1.3-0.1-2.9c-1.4,1-2.5,1.8-3.4,2.8
		c-1.3,1.5-1.6,2.6-2,3.8l-0.4,1.3l-0.5-0.6c-0.6-0.7-1.7-1.5-2.4-1.7c-1-0.4-1.9-0.9-2.6-1.4c0.1,0.8,0.4,2,0.5,2.7
		c0.3,2.5-0.1,4.7-0.4,7.9c-0.3,2.9,0.7,5.9,2.1,8.3c0.3,0.6,1.4,2.2,1.8,2.8c2,3.3,1.4,5.1,0.1,7.3c-1.3,2.2-2.2,3.8-3.1,6.4
		l-0.4,1.1l-0.4-1.1c-0.4-1.2-1-2.4-1.6-3.9c-1.1-2.4-2.3-5.2-3.2-8.3c-1.5-5-2.6-12.6-1.8-18.5c0.8-5.7,1.8-9.3,5.4-14.5
		c3.2-4.8,5.1-5.4,8.3-6.6l0.1-0.1c-0.2-0.8-0.3-1.8-0.3-3c0.1-0.8,0.1-1.5,0.2-2.2c-0.7,0.5-1.3,0.8-1.7,1.2
		c-1.7,1.2-4.3,3.6-6.5,6.2l0.4-1.4c1.9-8,8-19,10.7-22.8c1.8-2.5,4.3-5.3,7.5-8.4c1.7-1.7,2.6-1.8,4.8-0.8c0.5,0.2,1,0.5,1.7,0.8
		c0.7,0.3,1.5,0.7,2.3,1.1c1.1-1.7,2.5-3.4,3.9-4.9c-1.4-0.3-2-0.7-2.9-1.4l-0.2-0.2c-1.4-0.9-3-1.4-3.9-1l-1.7,0.7
		c0,0,4.1-4.7,12.4-9.2c8-4.4,16.6-6.1,16.6-6.1l-0.8,0.9c-1,1.2-1.8,1.9-5.2,3.8c-1.9,1.1-3.2,1.7-3.9,2.1c0.7,0.1,1.9,0.2,4-0.2
		l0.5-0.1l0,0.5c0,0.2,0,0.5-0.3,0.7c-0.1,0.1-0.3,0.3-0.5,0.4c3.2-1.2,6.5-2.1,10-2.6c1.3-1,1.6-1.4,2.2-2.3
		c0.5-0.8,0.6-1.7,0.7-2.4c-2,2-4.7,2.4-7.8,2.7c3.6-1.5,7.3-3.9,8.4-7.6c0.7-2.3,0.3-4.4-0.6-5.8c-0.2,1.5-0.3,3.1-2.7,5.3
		c-1.9,1.9-5.8,2.7-9.4,3.6c-5.6,1.4-10,3.1-15.5,6.2c-5.1,2.9-8.8,6.2-13.5,11.3c-2.4,2.6-5.9,7.3-5.9,7.3l-0.1-1.1
		c0,0-0.2-1.4-0.9-2.6c-0.5-0.7-0.9-1-1.8-1.4c-0.6-0.3-1.5-0.5-2.4-1c-1.4-0.8-1.6-2.2-1.8-3.7c-0.2-1.2-0.3-2.5-1-4
		c-1.7-3.6-6-2.9-6-2.9c-1.6,0.3-3.2,0.8-3.5,1.2c0.4,0.6,2.2,2.6,4.4,3.4c0.7,0.2,1.2,0.5,1.2,0.5s-0.5,0.3-1.2,0.4
		c-2.1,0.4-4.1,1.5-4.5,2.6c0.4,1,2.2,2.4,3.4,2.8c1,0.4,1.3,0.6,1.3,0.6s-0.2,0.4-1,0.7c-1.9,0.6-3.4,2-3.7,3.4
		c0.2,0.8,2.6,2.1,4.8,2.3c1,0.1,1.3,0.5,1.3,0.5s-0.2,0.3-1.1,0.6c-0.9,0.3-1.5,0.8-2.3,1.7c-1,1.2-1.8,3.6-1.8,4.2
		c0.6,0.3,3.5,0.6,4.6,0c4.2-2.4,5-5.1,5.5-6.6l0-0.1c0.2-0.5,0.2-1,0.3-1.5c0.1-0.8,0.2-1.4,0.8-1.7c0.6-0.3,1-0.2,1.5,0.2
		c0.9,0.7,1.1,2.6,0.9,4c-0.2,1.1-2,4.4-3.8,8c-1.1,2.2-2.3,4.5-3,6c-1.9,4.2-4,9.2-5,12l-1,2.5c-0.7,1.9-1.3,3.6-1.7,5L93,96.5
		c-0.4,1.5-0.8,3-1.1,4.6l-0.4,2.5l-0.5-2.5c-0.3-2.3-2-4.9-3.2-6.7l-0.4-0.6l-0.2-0.3l0.2-0.3c2-2.4,3.6-5.5,4.4-8.6
		c0.8-3.3,0.4-5.5-0.1-7.7c-0.5-1.8-1.4-3.5-2.5-4.5c-0.4-0.4-1.1-0.7-1.4-1c0.1,1.2-0.4,2.2-0.7,2.9L86.3,76l-0.1-1.7
		c-0.1-2.6-2.5-4.2-3.4-4.9c-0.1-0.1-0.2-0.1-0.2-0.2c-0.3-0.2-0.6-0.4-0.8-0.6c0,0.4-0.2,1-0.3,1.5c-0.1,0.2-0.1,0.5-0.1,0.7
		l-0.2,1l-0.6-0.8c-0.5-0.7-1.9-1.9-2.7-2.6l-0.4-0.3c-0.5-0.5-1.6-1-2.3-1.4c-0.3-0.1-0.5-0.2-0.6-0.4c-0.4-0.2-0.5-0.3-0.6-0.5
		c-0.1,0.4-0.3,0.8-0.3,1.1l-0.1,0.6l-0.5-0.4c0,0-1.6-0.9-2.9-1.7c-1.3-0.8-2.3-1.7-3.3-2.9c-0.8-1-1.6-2.5-1.9-4.5
		c-1.2,1.7-2.5,3.7-3.2,7.2c-0.7,3.1-0.8,6-0.3,8.6c0.3,1.6,1,3.6,1,3.6s-0.9,0.4-2.3-0.1c-0.8-0.3-1.7-1.2-2-1.5c0,0.3-0.1,1,0,1.8
		c0.1,1.4,0.5,3,1.2,4.7c0.7,1.8,1.6,3,1.6,3l0.6,0.8l-1.1-0.1c0,0-0.8-0.1-1.5-0.3c-0.3-0.1-0.7-0.1-1-0.1c0.1,0.2,0.2,0.5,0.4,0.8
		l0.2,0.2c0.7,0.9,2.6,3.3,4.1,4.7c1.7,1.6,3.1,2.6,3.1,2.6l1.2,0.9c0,0-2.8-0.1-4.6-0.5c0.9,1.8,1.9,3,3.5,4.4
		c1.6,1.3,4.5,2.4,8.2,2.4c3.7,0,6.3-1.4,8.3-2.6l0.2-0.1c2.3-1.2,2.8-1.1,4,1c1.2,2.2,2.3,5.8,2.8,7.8c0.4,1.2,0.5,3.4,0.5,6.2
		c-0.1,2.2,0.2,4.5,0.3,6.1l0.1,1c0.3,2.9,0.9,5.1,1.4,6.2c0.3,0.5,0.5,1.2,0.9,2.3c0.5,1.4,1.2,3.2,1.9,4.8l1.1,2.7l-1.9-2.2
		c-0.4-0.5-1.2-1.1-2.2-1.9c-0.6-0.5-1.3-1.1-2.1-1.7c-0.6-0.5-1.1-0.8-1.6-1.1c-1.3-0.9-2.9-1.8-3.5-4.1c-0.5-2-0.3-4.2,0.1-5.7
		c0.2-0.6,0.4-1.3,0.6-3.4c0.1-1.4-0.1-3.7-0.9-5.4c-0.8-1.8-2.9-4-4.4-4.5c-1.5-0.5-2.8-0.6-3.7-0.3c-0.4,0.1-1.1,0.3-1.4,0.4
		c0.2,1,0.3,3,1.5,5.1c1.1,1.9,0.9,4.7,0.9,4.7s-0.8-0.9-2.5-1.8c-2.2-1.1-4.8-0.9-6.7-0.1c-0.1,1.3,0.5,2.9,0.7,3.9
		c0.6,2.3,1.3,4.3,1.3,4.3s-1.7-0.7-3-1c-1.4-0.3-3-0.3-4.4,0.6c-0.3,0.8-0.2,2.6,0.9,4.8c0.4,0.9,1.5,2.7,1.5,2.7s-1.4-0.4-2.6-0.2
		c-1.5,0.3-2.7,0.9-3.7,1.7c1.2,2.2,4.4,5.6,8.5,6c4.1,0.5,8.6-1.9,10-3.5c1.5-1.7,2.4-2.5,4-2.8c2.2-0.4,6,1.6,11.7,7.1
		c3.4,3.2,4.1,5.7,4.8,8.2c0.3,1.1,0.6,2.2,1.2,3.4c0.8,1.9,1.4,3.2,1.9,4.3c0.5,1.2,0.8,2,1.4,2.9c1,1.9,3,5.2,4.5,7.5l0.9,1.3
		l-1.5-0.6c-1.8-0.8-6.8-1.9-9.6-1c-1.8,0.6-3.8,0.4-5.2-0.4c-0.9-0.5-1.5-1.3-1.8-2.2c-0.2-0.7-0.4-1.5-0.6-2.3
		c-0.4-1.7-0.8-3.6-1.7-5.9c-1.1-2.8-2.8-5-5.1-6.6l-0.9-0.6c-1.4-0.9-2.3-1.6-3.1-2.2c-0.6-0.5-1.3-0.7-1.8-0.7c0,0.4,0,0.8,0,1.4
		c0,0.5,0,1.1,0,1.8l0.1,1.3l-0.8-1c-1.5-1.7-4.1-3-5.1-3.5l-0.2-0.1c-0.7-0.3-1.1-0.5-1.4-0.6c0,0.1,0,0.2,0,0.3
		c0.1,0.6,0.2,1.4,0.6,2.3l0.7,1.2l-1.3-0.6c-3.4-1.7-5.3-2-6.5-2.2c-0.2,0-0.4,0-0.6-0.1c-1-0.2-2-0.1-2.6,0
		c1.1,1.5,3.3,3.1,4.2,3.9l0.3,0.2l1,0.8h-1.2c-0.5,0-1,0.1-1.7,0.3c-0.4,0.1-0.8,0.2-1.3,0.3c-0.7,0.1-1.2,0.1-1.8,0.1
		c0.3,0.3,0.7,0.8,1.3,1.4c1.4,1.4,2.6,2.5,2.6,2.5l1.2,1.2l-1.7-0.5c0,0-0.5-0.1-2-0.2c-1.7-0.1-2.9-0.5-4-0.9
		c-0.4-0.2-0.8-0.3-1.1-0.5c-0.1,0-0.1,0-0.2-0.1c0.6,1.1,1.5,2.6,2.1,3.2l1.1,1.3l-1.6-0.5c-0.5-0.2-1.4-0.5-2.8-0.8
		c-0.9-0.2-2.4-0.7-3.5-1.1c-0.4-0.1-0.8-0.3-1-0.3c-0.2,0-0.3-0.1-0.5-0.2c0.7,1.3,1.9,3,2.6,3.7l1.1,1l-1.5-0.3
		c-0.3,0-0.9-0.2-1.7-0.4c-1.2-0.3-2.8-0.7-4.2-1c-2.2-0.5-4.1-1.4-4.9-1.9c0.3,0.7,0.7,1.7,1.1,2.7c0.4,0.8,1.2,1.7,1.9,2.3
		c0.4,0.5,0.8,0.8,1,1.2l0.5,0.8l-0.9-0.1c-0.3,0-0.7-0.1-1.2-0.1c-0.2,0-0.5-0.1-0.7-0.1c0.5,0.8,1.8,2.3,2.3,3
		c1.2,1.5,3.6,3.4,4.8,4.3l0.4,0.3l1.9,1l-2.2-0.2c-0.8-0.1-1.9-0.3-2.6-0.3c2.3,2.8,7.7,5.9,9.6,6.9l1.2,0.6l-1.4,0.2H56
		c-0.8,0.1-1.6,0.2-3.5-0.1c-0.5-0.1-1-0.1-1.4-0.1c0.1,0.2,0.4,0.7,1.2,1.4c1.8,1.7,8.1,3.7,8.1,3.7l0.9,0.3l-0.7,0.5
		c0,0-0.8,0.6-2.5,1c-0.9,0.2-1.6,0.3-2.2,0.3c-0.3,0-0.6,0-0.9,0.1c-0.6,0.2-0.9,0.3-1,0.4c1,1,4.8,2.7,7.1,3.2
		c2.4,0.6,5.2,0.6,5.2,0.6l1.1,0l-0.8,0.8c0,0-0.3,0.3-0.9,0.8c-1,0.8-1.4,1.2-1.5,1.4c0.3,0.2,1.3,0.6,3.6,0.6
		c2.5,0,5.7-1.8,5.7-1.8l1.2-0.7l-0.6,1.3c0,0-0.3,0.7-0.8,1.5c-0.4,0.8-1.3,1.7-2,2.3l-0.2,0.2c-0.2,0.2-0.6,0.6-0.8,0.8
		c1.4,0,6.1-0.4,7.8-1.3c1.5-0.8,2.8-1.8,3.8-2.9c0.6-0.6,1.4-1.4,2.2-1.8C84.1,189.1,84.1,188.3,84.3,187.3 M78.4,96.2
		c-2,1.9-5.5,1.4-7,1.2c-1.5-0.2-2.6-1.1-2.6-1.1s1.4-0.1,2.5-0.2c1.4-0.3,3.7-0.3,4.9-1.5c1.6-1.5,1.3-3,0.4-4.1
		c-0.9-1-2.3-0.8-3.2-0.2c-0.1,0.1-0.2,0.2-0.4,0.3c-0.7,0.5-1.7,1.3-3.4,1c-1.2-0.2-2-0.6-2.6-0.8c-0.3-0.2-0.6-0.3-0.8-0.3
		l-1.1-0.2c0,0,0.6-0.6,1.4-0.9c0.8-0.3,1.5,0.1,3.2-0.2c1.5-0.3,2.1-1.3,2.7-2c-0.5-0.3-1.9-0.6-2.6-0.9c-1.1-0.4-2.5-0.8-3.5-1.4
		c-1.6-1-2.1-1.6-2.4-2L62.6,81l1.7,1c1,0.4,2.2,1.1,3.8,1.3c0,0,1.1,0.1,1.8,0.2c-0.8-1-1.3-1.7-2.3-4.1c-1-2.4-1.1-5.3-1.2-6.7
		c0-1.4,0.1-3.2,0.1-3.2s0.4,1.9,0.8,3.1c0.3,1.2,1.8,4.4,3.1,6.4c1.3,2.1,3.1,4.4,5.1,6.7l0.8,1C78.5,89.2,81.8,93.1,78.4,96.2
		 M84.7,89.1c1,3.4,1.3,7.1,1.3,7.1l-1-2c-0.1,0-1.5-2.4-3.6-4.9l-0.8-1c-2.2-2.7-5.6-6.9-6.7-8.6c-1.1-1.7-2-3.4-2.5-5.1l-0.6-2.4
		l1.4,2c1.1,1.4,2.8,3.1,3.8,4.1c0.1-0.3,0.2-0.6,0.3-0.8c0.2-0.4,0.3-0.9,0.4-1.6c0-1.5-0.1-2.2-0.5-3l-0.6-1.3l1.2,0.7
		c1.2,0.7,2.1,1.8,2.4,3c0.3,1.2-0.6,3.8-0.9,4.7c0.4,0.5,1.2,1.5,2,2.4c0.1-0.5,0.3-1.2,0.7-1.8c0.1-0.2,0.3-0.4,0.4-0.6
		c0.8-1.1,1.7-2.4,1.7-4l0-2.5l0.9,2.3c0.5,1.4,0.3,2.9,0.1,4.4l0,0.3c-0.2,1.3-1.3,2.9-1.7,3.5l1.6,2c0.6-0.5,1.7-1.6,2.4-2.7
		c2.1-3.3,2.2-6.4,2.2-6.4l0.7,1.9c0.4,1.5,0.3,3.6-0.3,5.1C87.9,86.4,86.5,88,84.7,89.1 M50,162.3l-2-1.6l2.4,0.8l3,0.9
		c1.8,0.5,3.5,1.1,4.8,1.3c0.5,0.1,1.1,0.3,1.7,0.4c2,0.6,4.5,1.2,6.1,1.1c0.7-0.1,2-0.1,2.6-0.3c-0.7-0.8-3.3-3.2-4.9-4.4l-2.4-1.7
		l-1.4-1l1.8,0.2c0.2,0,2.9,0.4,5.7,2.5c2.7,2.1,4.9,4.3,5.2,4.9c0.2,0.4,2.1,0.4,2.9,0.4c1.2,0,1.9-0.1,2.2-0.2
		c0,0-0.1-0.1-0.1-0.1c-0.8-0.8-4.6-3.6-6.2-4.4l-3.7-1.9l-1.7-0.8l2,0c0.1,0,2.1,0.1,3.7,0.8c0.7,0.3,1.3,0.6,1.9,0.9
		c0.8,0.3,1.5,0.7,1.9,0.8c0.1,0,0.3,0.1,0.4,0.1c0.3,0.1,0.9,0.4,1.3,0.3c0,0-0.5-2.3-1.4-3.4c-0.7-0.9-3.8-2.5-5.7-3.3l-3.2-1.4
		l-2.4-0.9l2.7,0.1c0.2,0,4.7,0.8,6.2,1.6c0.1,0,0.1,0,0.1,0c0-0.1-0.1-0.3-0.2-0.5c-0.4-0.7-1.9-2.4-1.9-2.4l-1.6-1.7l2.1,1
		c0.1,0,2.7,1,4.2,2.7c1.5,1.5,3.4,3.9,4.2,6.8c0.4,1.4,0.4,2.5,0.4,3.2c0,0.7,0,1,0.2,1.1c0,0.1,0,0.1,0,0.1
		c0.1-0.1,0.4-0.4,0.9-1.7c0.5-1.4,0.6-3.3,0.3-5.7c-0.2-1.8-0.4-2.7-0.6-3.4c-0.1-0.3-0.1-0.5-0.1-0.8l-0.6-2.6l1.5,2.3
		c0.8,1.3,2.5,3.9,3,7c0.4,2.8-0.1,6.9-2.9,8.9c-2.3,1.6-6.3,2.1-11.2,1.4c-4.4-0.6-9.7-2-12.6-3.3C54.9,164.9,51.4,163.3,50,162.3
		 M82.7,178.4c0.2,1.3,0.6,3.2-0.2,4.8c-0.9,1.9-2.1,2.8-2.1,2.8l-1.1,0.9l0.4-1.4c0.4-1.2,1-3.5,0.7-4.2c-0.2-0.7-0.7-1.2-1.1-1.2
		c-0.3,0-0.5,0.4-0.6,0.7c-0.3,0.6-0.4,1.2-0.4,1.7c-0.2,1-0.3,1.9-1.3,3c-1.4,1.6-2.1,2.1-2.1,2.1l-1.8,1.2l1.1-1.8
		c0.8-1.6,2-4.4,2-5c0-0.2,0-0.4,0-0.5c-0.1,0.1-0.4,0.2-0.8,0.7l-0.4,0.4c-1.4,1.5-3.2,3.4-7.4,4c-4.4,0.6-5.8-0.2-6-0.3l-1-0.7
		l1.2-0.1c0,0,4.3-0.4,6.5-1.4c2.1-0.8,4.3-2.6,5.2-3.5v0c-0.4,0-0.8,0.1-1.3,0.1c-1.7,0-4.1-0.2-4.2-0.2l-2.6-0.4l2.6-0.5l2.7-0.7
		c0.3-0.1,0.5-0.1,0.8-0.2c0.9-0.3,1.9-0.6,3-0.7c1.1-0.1,3.3-0.6,4.6-1.9c0.3-0.2,0.5-0.5,0.8-0.7c0.2-0.1,0.3-0.3,0.4-0.4
		c-1.3,0.1-3,0.1-5.4,0.2c-0.9,0-1.6,0-2.2,0c-1.1,0-2,0-2.2,0.1c-0.6,0.4-4.8,1.6-6.8,1.8c-2.2,0.3-4.5,0.3-6.1-1.2l-1-0.9L58,175
		c2.7,0.3,6.2,0.2,8.4-0.8c0,0-0.2,0-0.2,0c-0.3,0-0.6,0-0.9-0.1l-0.5-0.1c-1.8-0.2-5.4-0.6-8.4-2.7c-3.2-2.3-3.3-3-3.1-3.4l0.3-0.4
		l0.4,0.3c0.1,0,2.6,2,7.3,3c5.1,1.2,10,1.9,13.8,2c7.5,0.2,10.5-1.1,10.5-1.1l2.6-1.3l-2.1,2c0,0-1.1,1-2,2.2
		c-0.1,0.2-0.3,0.4-0.4,0.5c-0.7,0.9-1.2,1.6-1.2,2.6C82.6,177.9,82.7,178.1,82.7,178.4 M157.8,227.5c-6.1,5-15.2,12.3-16.7,13.7
		c-1,0.9-1,1.7-0.6,2.3c0.4,0.5,1.2,0.7,1.8,0.2c1.2-1.1,14.9-12.4,20.7-17.1C161.3,226.9,159.5,227.2,157.8,227.5 M238.4,75
		c0.2,0.4,0.5,0.8,0.7,1.2c0.5,1,0.9,2.4,1.1,3.2c0.1-0.8,0.2-1.8,0.3-2.6c0.2-1.2,0.3-3.2,0.3-4.5c0-1.3-0.4-3.3-1.6-5.7
		c-1-2-1.4-4.3-1.4-5.8c-0.1-1.6-0.3-3-0.6-3.8c-0.3-0.7-0.6-0.9-0.8-1.2c0,0.4,0.3,1.2,0.3,1.7c0,2.3-0.4,4-0.8,6.9
		c-0.5,2.9,0.5,6.2,1,7.5C237.3,73.1,237.8,74.1,238.4,75 M261.5,155.2c-1.3,0.8-3.9,2.1-6.2,2.7c-2.3,0.6-4,0.7-6.8,0.6h-0.6
		c-2.6,0-5.8-0.1-7.5,0.5c-1.9,0.7-4.6,2.9-5.5,3.9l-1,1.1c1-0.3,2.6-0.6,4.4-0.6l0.3,0c3.1,0.1,7.2,0.2,10.8-0.8
		c3.8-1.1,6.1-2.6,8.1-4.1c0.8-0.5,1.8-1.2,2.7-1.9c1.5-1.1,3.2-2.2,3.7-2.7c0.1-0.1,0.2-0.2,0.3-0.3c-0.8,0.4-1.4,0.7-2.1,1.2
		L261.5,155.2z M273,132c-1,1.4-2.8,4-4.4,5.8c-1.6,1.8-4,2.3-6.4,2.7l-0.6,0.1c-3,0.5-5.5,1.8-7.5,3.5c-1.1,1.1-2.5,2.4-3.4,3.4
		c1-0.4,2.3-0.8,3.4-0.9c3.4-0.2,5.8-0.3,7.2-0.6c1.7-0.5,3.5-1.8,5.2-3.8l1.5-1.7c1.6-1.8,3.1-3.6,3.7-4.8l0.5-0.9
		c0.7-1.4,1.6-3.1,1.9-4C273.5,131.2,273.2,131.7,273,132 M260.2,149.4c-2.3-0.3-5.7-0.3-7.5,0c-1.8,0.3-4.5,1.5-5.8,2.3
		c-0.8,0.5-2,1.6-3,2.4c-0.5,0.5-1.1,0.9-1.4,1.2c-0.3,0.2-0.6,0.6-1,0.9c0.8-0.2,1.8-0.4,2.8-0.3l0.3,0c2,0.1,6.9,0.5,8.8-0.2
		c1.5-0.5,2.9-1.4,4.1-2.1c0.6-0.2,1-0.5,1.4-0.7c1.3-0.7,5.5-3.4,7-5.1c0.1-0.1,0.2-0.2,0.3-0.4c-0.1,0.1-0.2,0.2-0.4,0.3
		C264.7,148.4,262.7,149.8,260.2,149.4 M185.2,223.8c-0.1,0-0.3-0.1-0.4-0.2c-2.6,0.3-5.3,0.6-8.1,1c-0.1,0.2-0.3,0.3-0.3,0.5
		l-0.4,1.1l-0.2-1c0-0.2,0-0.3,0-0.4c-2,0.3-4,0.6-6,0.9c2.5,2.2,4.5,3.8,5.7,4.5c1.4,0.9,3.1,2,4.1,2.8c-0.5-1.5-0.9-4.3,1.4-6.5
		C182.5,224.6,184,224,185.2,223.8 M259.9,172.7c-1.8-0.7-5-1.5-7.1-1.8c-2.2-0.3-3.3-0.2-4.9,0.4c-0.6,0.2-1.7,1-2.3,1.5
		c-0.6,0.6-1.4,1.3-3,2.2c-3.2,2-5.8,3.4-10.9,3.1L229,178c-2.9-0.2-3.7-0.3-4.8,0.5l-2,1.4c-2.1,1.5-5.2,3.7-7.6,5.3
		c-1.9,1.3-5.7,3.3-9.8,5.4c0.8,0,1.5,0.1,2.1,0.2c3.4-1.5,6.9-2.9,10.1-4c10.2-3.2,17.8-4.9,25.5-5.6c8.6-0.7,10.3-0.5,10.5-0.1
		c0.2,0.4,0,2.6-4.4,5.4c-3.8,2.3-5.4,2.4-5.4,2.4c0,0,3.4-2.3,5.5-5.7c-1.1,0-3.1-0.1-3.7-0.1c-0.3,0.4-0.8,1.1-1.6,1.9
		c-2.6,2.7-4.1,3.8-7.5,5.8c-3.4,1.8-6,2.9-7.9,3.5c0.6,0,1.2-0.1,2-0.1c2.7-0.3,8.4-1.1,12.9-2.5c5.4-1.7,9.8-4.3,13.8-8.1
		c4.6-4.4,5.8-8,5.8-8.7C262.4,174.2,261.6,173.4,259.9,172.7 M201,235.6c-0.9-0.3-2.4-0.9-4.1-2.6c-1.4-1.4-4.5-4.6-6.8-6.2
		c-2-1.4-6.1-1.9-8.2,0.6c-1,1.2-1,2.4-0.9,3.3c0.2,1.7,1.3,3.3,2.6,3.9c2.4,1.1,7,2.3,12.4,2.3c5.2,0,5.9-0.7,6-1v0
		c-0.1-0.1-0.3-0.1-0.5-0.2C201.3,235.7,201.2,235.6,201,235.6 M194.7,235l-0.2,0.1c-0.1,0-1,0.3-2.1-0.7c-0.2-0.2-0.5-0.5-0.8-0.8
		c-0.8-0.9-2.1-2-3.9-3.3c-0.3-0.3-0.7,0-0.8,0.1c-0.2,0.2-0.4,0.5-0.3,0.8c0.3,0.7,1.2,1.5,1.2,1.5l0.4,0.4l-0.5,0.2
		c0,0-1.5,0.6-2.9-0.2c-0.8-0.5-1.7-1.4-1.8-2.6c0-0.6,0.1-1.2,0.5-1.7c1.3-1.7,3.5-1.5,5-0.6c2,1.2,3.7,2.5,5.5,5.1
		c0.8,1.3,0.8,1.4,0.8,1.4V235z M166.1,226.1c-5.3,4.3-12.6,10.2-13.7,11.2c0.1,0.1,0.4,0.2,0.7,0.2c0.4,0.1,1.2,0.1,2.1-0.7
		l12.3-10.1l-0.9-0.8C166.5,226,166.3,226.1,166.1,226.1 M203.6,45.5c1.4,4.5,0.8,7.1,0.1,10c-0.7,2.8-0.2,4.1,0.3,5.3l0.1,0.3
		c0.4,1,1.7,3.2,2.5,4.4l0-0.2c-0.2-1.5,0.6-4.4,1.2-6.4c0.9-2.5,1.4-6.6-0.1-10c-1.6-3.7-4.1-7.1-5.6-9c-0.6-0.7-1.1-1.2-1.8-1.9
		c0.1,0.4,0.4,0.9,0.7,1.4C201.7,40.8,202.7,42.6,203.6,45.5 M182.5,30.9c2.7,0.9,4.7,3.1,5.6,4.7c0.9,1.5,1.5,4.6,2,6.7l0.1,0.5
		c0.3,1.7,1.2,3.2,2.5,4.8c0.7,0.8,1.6,1.7,2.3,2.4c-0.2-1-0.3-2.5-0.4-3.4v-1c0-1.5-0.3-3.3-0.6-4.6c-0.4-1.8-1.7-4.5-3.7-6.6
		c-1.4-1.5-3.1-2.7-5.8-3.5c-1.3-0.4-3.5-0.6-4.5-0.8c0.3,0.1,0.7,0.2,1.1,0.3L182.5,30.9z M209.6,46.6c1,2.3,2.4,5.8,1.7,9.6
		c-0.6,3.1-1,4.2-1.4,5.2l-0.2,0.5c-0.4,1.3-0.7,2.9-0.6,4.2c0.1,1.3,0.5,2.4,0.5,2.4c0.4,0.3,1.2,0.9,1.7,1.6c0,0,1.3,1.6,1.6,3
		c0.4,1.2,0.4,3.7-0.6,5v0c0.4,0.2,0.8,0.3,1.3,0.5c1.2,0.4,2.2,1.2,2.8,2.4c0.6,1.2,0.6,2.4,0.2,3.6c0,0.1-0.1,0.2-0.1,0.2
		c0,0.1,0.1,0.2,0.1,0.2c0.8,1.4,2.9,5.9,3.3,6.6c0.4,0.3,2.4,1.9,3.5,2.9l0.2,0.3c0.5,0.4,1,0.9,1.3,1.1v-0.5l-0.1-0.8
		c-0.1-1.6-0.3-3.6-0.8-5.2c-0.9-2.5-1.9-4.5-2.9-6l-3.3-4.7l-0.2-0.3l0.2-0.3c0,0,1-1.1,1.3-2.8c0.3-1.4,0.9-5.1,0-8.1
		c-0.7-2.6-1.9-6.2-3.4-9.6l-0.5-1.2c-0.8-1.9-1.4-3.6-2-5.1c-0.5-1.5-1.2-3.1-1.7-4c-0.9-1.9-2.2-3.7-3-4.6c-0.3-0.5-0.9-1-1.2-1.4
		C207.3,41.5,208.5,44.1,209.6,46.6 M193,34.4c1.6,2,2.6,3.5,3.3,5.4c0.6,1.7,0.7,4.5,0.7,6.9l0,0.7c0,2.4,0.7,4.6,1.9,6.1
		c0.8,0.9,1.5,2.2,2,3.2c0-0.6,0.1-1.2,0.2-1.8c0.1-0.5,0.2-1,0.3-1.5c0.2-0.8,0.5-1.8,0.5-3c0-2-0.7-6.8-2.6-10.8
		c-1.3-2.9-4-5.4-5.6-6.4c-1.5-1-3-1.7-4.3-2.4C190.7,31.7,192,33.1,193,34.4 M220.2,62.6c0.3,0.8,1.8,5,1.8,8.2
		c-0.1,5-0.9,7.2-1.2,7.8c0.6,0.9,2.4,3.6,3.4,5c0.4-1.6,0.8-3.8,1.1-5.8c0.3-2.2,1.1-9.6,0.9-13.3c-0.1-3.7-1.1-9.1-1.8-12.5
		c-0.4-2.2-1.3-4.5-2.7-7.1c0.3,1.5,0.7,6.3,0.2,9.7C221.3,57.8,220.3,61.9,220.2,62.6 M57.2,112.9c-0.1-0.8-0.4-2.6,0.1-4.2
		c-1.4,0.2-3.7,0.9-4,1.2c-0.2,0.4-0.5,2.5,0.2,4C54.7,113.3,56.4,113,57.2,112.9 M237.3,89.1c0.3,0.5,0.5,0.9,0.7,1.2
		c0.1-0.6,0.2-1.3,0.4-2c0-0.2,0.1-0.6,0.2-0.9c0.4-1.2,1-2.9,0.7-4.4c-0.3-1.9-1.2-3.6-2.5-6c-0.2-0.4-0.4-0.7-0.6-1.1
		c-1.2-2.1-2.7-4.8-2.9-7.6c-0.1-0.8-0.1-1.4-0.1-1.9c-0.3,1.4-0.7,4.5-0.8,6.6c-0.1,2.8,0.8,6.9,1.8,9.5
		C234.9,84.3,236.6,87.9,237.3,89.1 M231.6,93.9c0.4,1.2,1,2.2,1.5,3.1c0.4,0.8,0.8,1.5,1.1,2.3c0.7,1.7,1.2,2.9,1.5,4.3
		c0,0.3,0.1,0.5,0.1,0.6c0.3-1.2,0.8-3.4,1-5.8c0.3-3.1-0.5-5.5-1-7.2c-0.4-1-1.3-2.8-2.3-4.6c-0.7-1.3-1.4-2.6-1.7-3.4
		c-0.8-1.9-1.1-4.9-1.2-6.5v-0.2c-0.2,1-0.3,2.1-0.5,3.4c-0.2,2.4-0.4,4.5-0.1,7.3C230.2,89.7,230.8,91.8,231.6,93.9 M223.9,109.9
		c-0.2,2.1,0.8,4.7,1.7,6.3c0.9,1.5,2.9,3.6,3.9,4.4c1.2,1,1.4,1.7,1.1,3.2l-0.1,0.4c-0.3,1.8-1,6.4-2.4,11.1
		c-1.1,3.9-2.8,9.2-4.4,13.2v0.2c0,1.6-0.2,3-0.5,4.2c0.3-0.4,0.6-0.8,0.9-1.1l0.2-0.2c1.4-1.5,2.1-2.3,2.6-3.7
		c0.1-0.3,0.3-0.8,0.6-1.4c0.9-2.2,2.4-5.8,3.4-9.1c0.7-2.2,1.4-5.2,2.1-7.8c0.6-2.2,1.1-4.1,1.3-4.9c0.6-1.6,1.2-2.6,2-2.9l0.1,0
		c3-1.6,4-2.2,4.3-2.5c0.9-0.9,2.7-2.6,4-4.9c2.3-3.8,4.3-10,4.6-11.1c0.9-3,2.3-6.9,2.9-8.7c0.7-2,1.1-3.9,1.5-5.2l0-0.1l0,0
		c-0.3,0.5-0.6,1.1-0.9,1.8c-0.4,0.9-0.9,2-1.5,2.9c-0.3,0.4-0.5,0.9-0.7,1.4c-0.6,1.3-1.5,2.9-3.2,4.6c-2.2,2.1-4.6,3.5-6.2,4.5
		l-0.5,0.3c-1.6,0.9-3.2,2.1-3.7,2.7c-0.3,0.4-0.3,0.6-0.2,1.1c0.1,0.2,0.1,0.3,0.1,0.5c0.1,0.8,0.3,3.2-0.6,5.1
		c-0.7,1.7-1.7,3.6-4,3.6c-0.8,0-1.6-0.4-2.2-1c-0.7-0.8-1.1-1.9-1-2.7c0.1-0.3,0.1-0.7,0.5-0.9c0.5-0.1,0.7,0.3,1,0.7
		c0.1,0.2,0.3,0.3,0.3,0.4c0.3,0.3,0.9,0.7,1.5,0.7c0.4-0.1,0.8-0.4,1.1-1c1.1-1.9,1.1-3.9,0.9-5.7c-0.1-1.5-1-4.2-1.9-6.7
		c-0.4-1.3-2.5-5.9-2.9-6.8c-0.8-2.3-1.5-4.1-1.8-7.2c-0.2-2-0.5-3.2-0.5-4c-0.2,0.5-0.3,0.9-0.4,1.6c-0.2,1.7,0.1,3.5,0.3,5
		c0.2,1.9,0.5,6.6-1.2,10.7C224.8,105.1,224,107.7,223.9,109.9 M88.7,58.7c-0.6-0.6-1.8-1.7-2.4-2.5c-0.8,0.9-1.4,2.5-1.5,2.9
		c0.1,0.3,1,1.5,1.7,2.1C87.1,60.3,88.1,59.3,88.7,58.7 M86.6,52.5c0.6-1.2,1.6-2,2.2-2.5c-0.5-0.4-1.4-1.3-2-2.1
		C86,48.6,85,50,84.9,50.4c0,0.3,0.9,1.2,1.4,1.8C86.4,52.4,86.5,52.4,86.6,52.5 M178.1,39.8c0.7,0.9,1.1,1.8,1.1,1.8s2.8,0.5,5.2,1
		c1.6,0.3,2.6,0.7,3.5,1.2c-0.3-1.1-0.6-2.3-0.9-3.5c-0.2-1-0.8-2.9-1-3.4c-0.3-0.3-3.4-1.9-6-2.7c-2.4-0.8-6.9-1.7-10.7-2.2
		c-3-0.4-5.5-0.1-6.5-0.2c0.9,0.2,3.1,0.8,5,1.4c3.2,0.9,5.2,2.1,6.9,3.5C176.5,37.9,177.5,38.9,178.1,39.8 M84.8,54.5
		c-0.4-0.5-1.1-1.4-1.5-2.1c-0.9,0.8-1.9,2.2-2,2.6c0.1,0.3,0.9,1.6,1.9,2.7C83.5,56.4,84.4,55.1,84.8,54.5 M91.3,48.7
		c0.7-0.6,1.5-1.2,2.1-1.5c-0.8-0.8-1.9-2.1-2.4-2.5c-0.6,0.2-2.3,1.3-2.6,1.8C88.6,46.8,89.9,47.8,91.3,48.7 M90.7,51.4
		c-1.5,0.9-2.5,2.7-2.5,3.1c0.2,0.4,1.5,2,2.6,2.8c0.6-1.1,1.8-2.4,2.4-3C92.5,53.8,91.3,52.7,90.7,51.4 M88.6,62.6
		c0.2,0.5,2,2.2,3.6,3.2c0.4-1.7,1.5-3.2,2.2-4c-0.9-0.4-2.5-1.1-3.3-1.9C89.6,60.8,88.7,62.3,88.6,62.6"/>
	<path class="st0" d="M133.2,214.5l-15,1.9v18.5c3.1-2.2,8.6-4.3,15-6.1V214.5z"/>
	<path class="st0" d="M215.6,219.4v-15.5l-15,1.9v12.4c1.1,0,2.2-0.1,3.3-0.1C209.9,218.2,213.5,218.7,215.6,219.4"/>
	<path class="st4" d="M119.9,239c1.5,0,3.6-0.4,5.6-0.7c2.4-0.5,4.7-0.9,6.3-0.7v-5.2c-8.6,2.7-12.8,4.9-13.4,6.4
		C118.5,238.8,118.9,239,119.9,239"/>
	<path class="st2" d="M131.8,240.5c-0.1,0-0.4-0.1-0.8-0.1c-1.2,0-3.1,0.3-4.9,0.7c-2.1,0.4-4.3,0.8-6.1,0.8c-2.5,0-3.6-0.9-4.1-1.8
		c-0.3-0.3-0.5-0.6-0.5-1v-22.3l-28.1,3.6l5.4,14.6l-5.4,15.3c0,0,30.1-5.1,35.4-6.1c4.2-0.8,8.4-1.2,10-2.6
		C132.6,241,132.6,240.9,131.8,240.5"/>
	<path class="st2" d="M246.6,200l-28.1,3.6v18.8c0,0,0,0,0,0l0,0c0,3.7-4.8,3.9-9.3,4.1c-2.9,0.1-6.5,0.4-7.4,1.4
		c-0.6,0.6-0.7,0.9-0.5,1.4c1.6,0.9,5.9,0.1,10.3-0.5c5.6-0.8,35-6,35-6l-4.3-10.8L246.6,200z"/>
	<path class="st0" d="M203.9,221.2c-0.6,0-1.3,0-2,0v3.3c2-0.7,4.7-0.8,7.2-0.9c1.9-0.1,6.5-0.2,6.5-1.1
		C215.5,222.6,213.7,221.2,203.9,221.2"/>
	<path class="st0" d="M133.2,225.9l-15,5.1v3.9c3.1-2.2,8.6-4.3,15-6.1V225.9z"/>
	<path class="st0" d="M125.5,238.2c2.4-0.5,4.7-0.9,6.3-0.7v-5.2c-8.6,2.7-12.7,4.9-13.4,6.4c0.2,0.1,0.5,0.3,1.5,0.3
		C121.5,239,123.5,238.6,125.5,238.2"/>
	<path class="st0" d="M205.5,213.7l-3.5,0.7v4c0.6,0,1.3,0,2,0c3.7,0,6.6,0.2,8.6,0.5C210.6,217.1,208,215.2,205.5,213.7"/>
	<path class="st2" d="M172.8,208.5c-1.8,0.2-3.3,1.7-3.3,3.4c0,1.7,1.4,2.8,3.3,2.5c1.9-0.3,3.3-1.7,3.3-3.4
		C176.1,209.3,174.7,208.3,172.8,208.5"/>
	<path class="st2" d="M154.6,212.1c-1.9,0.4-3.4,1.5-3.4,3.2c0,1.6,1.5,2.2,3.4,1.8c1.9-0.4,3.4-1.5,3.4-3.1
		C158,212.4,156.4,211.8,154.6,212.1"/>
	<path class="st2" d="M154.6,209.2c1.6-0.3,3-1.4,3-3c0-1.5-1.3-2.1-3-1.8c-1.7,0.3-3,1.4-3,2.9
		C151.6,208.9,152.9,209.5,154.6,209.2"/>
	<path class="st2" d="M190.6,200.9c-1.9,0.1-3.3,1.3-3.3,3c0,1.7,1.4,2.7,3.3,2.6c1.9-0.1,3.3-1.4,3.3-3
		C193.9,201.8,192.5,200.8,190.6,200.9"/>
	<path class="st2" d="M118.3,209.2v25.7c8.3-5.9,32.3-10.6,47.8-13c14.1-2.3,28-3.6,37.9-3.6c6,0,9.6,0.5,11.7,1.2v-21.9
		c-0.4-0.5-5-2.4-20.4-2.4c-8.9,0-19.2,0.6-29.8,1.8C132.1,200.7,118.3,206.7,118.3,209.2 M142,222.5l-3.5,0.9v-13.7l-4.4,2.9V209
		l7.9-5.2V222.5z M154.6,220.3c-4,0.8-7.3-0.6-7.3-3.9c0-2.2,1.5-3.8,3.3-4.9c-1.6-0.4-2.8-1.5-2.8-3.6c0-3.3,3-5.9,6.8-6.6
		c3.8-0.7,6.8,0.7,6.8,4c0,2.1-1.2,3.7-2.9,4.7c1.8,0.3,3.3,1.4,3.3,3.6C161.8,216.9,158.6,219.6,154.6,220.3 M190.6,197.9
		c4-0.3,7.1,2,7.1,5.3c0,1.5-0.6,3.1-1.8,4.7l-5.2,7.5l-4.4,0.3l4.6-6.3c-0.3,0.1-0.5,0.1-0.9,0.1c-3.8,0.2-6.5-2-6.5-5.3
		C183.6,200.9,186.6,198.2,190.6,197.9 M167.6,207.5l5.2-8.1l4.4-0.6l-4.6,6.8c0.2-0.1,0.6-0.1,0.9-0.2c3.8-0.5,6.5,1.7,6.5,5
		c0,3.5-3,6.5-7,7c-4,0.5-7-1.6-7-5.1C165.8,210.8,166.4,209.3,167.6,207.5"/>
	<path class="st0" d="M156.6,68.1c0,0.7,0.4,1.4,0.6,2.3c0,0,0.2,0.3,0.1,0.3l-0.5,2.1l-4.5,14.8c-0.8,2.9-1.9,6.4-3,8.8h6.4
		c-0.9-2,0.6-5.1,1.1-7c0.1-0.5,0.4-1.2,0.6-1.6h8.7c0,0.2,0.2,0.6,0.2,0.7c0.5,2.4,2.3,5.4,1.4,8c2,0,4.4,0.1,6.7-0.1
		c-1.3-1.8-2-4.3-2.6-6.5l-4.4-14.1c-0.3-1.2-1.1-3.1-1.1-4.3c0-0.8,0.2-2.5,0.5-3.4L156.6,68.1z M161.6,73.6l2.7,9h-5.5L161.6,73.6
		z"/>
	<path class="st1" d="M217.9,144c-3.4,2.3-8.2,2.8-9.7-3.6c-0.8-3.6-1.1-5.3-4.6-12.2c-4.5-8.8-13.7-17-23.4-19.1
		c-1.2-0.3-2.3-0.5-3.4-0.7c0.4-1.2,0.6-2,0.5-3.6c-0.2-1.8-0.9-2.9-1.5-3.6c-3.8,3.4-7.8,5.9-14.1,5.9c-12,0-22.2-9.9-22.2-22.7
		c0-12.3,10.4-22.5,22.8-22.5c7.5,0,16,4.4,20,11.5c1.5,2.7,2.2,4.8,2.4,9.3c0.2,2.9-0.6,5.4-1.7,7.4c-1.1,2-2,3-4,4.9
		c2.4,1,7.1,1.9,10.9,1c3.4-0.8,6-2.8,7.1-6.2c3.6,3.7,12.8,2.5,15.1-6.7c-12.2-4.5-7.9-16.3-27.1-30.7c-6.5-4.9-14.5-7.3-22.9-7.3
		c-19.4,0-30.6,12.6-34.4,20.8c-1.6,3.4-2.6,6.8-3.2,10.4c-1.7-1.3-4.8-1.9-7.6-1.1c-2.6,0.7-5.6,3.1-5.6,7.2c0,2.5,1,4.5,1.7,5.6
		c2.8-2.4,7.1-1.9,8.8,3.2c1,3.1,1,4.8,4.2,11.1c4.1,8,11.1,14.5,22.1,17.8c-0.6,1.4-1.3,2.7-1,5.2c0.3,2.6,0.9,3.4,1.7,4.4
		c1.4-1.6,3.2-3.2,5.4-4.3c2.5-1.4,5.6-2.2,9.1-2.2c15.8,0,25.3,12.4,25.3,24.9c0,13.6-11.1,24.8-24.7,24.8
		c-13.6,0-20.6-9.7-22.4-13c-1.6-3.1-2.8-7.1-2.5-11.5c0.5-6.1,3.5-9.3,6.2-11.9c-2.9-1.2-7.3-2.5-11.7-1.7
		c-3.8,0.7-6.9,3.6-8.1,7.4c-4-4-13.9-2.4-16.6,7.4c12.7,4.6,8.8,18.1,29.9,33.9c7.1,5.3,16.7,7.9,24.2,7.9c19.4,0,33.1-11,39-23.4
		c1.9-4,2.9-8.1,3.5-11.7c1.8,1.3,4.1,2.5,7.1,2.1c3.4-0.4,6.4-2.9,6.8-7.3C219.5,148.3,218.6,145.6,217.9,144"/>
	<path class="st0" d="M167.3,131.2H160h-7.6c0,0,1.1,1.6,1.1,4.1v26.7c0,2.3-1.1,4.1-1.1,4.1h8.5c0,0-0.9-1.7-0.9-4.5v-9.1h7.3
		c5.9,0,10.6-4.8,10.6-10.7C177.9,135.9,173.1,131.2,167.3,131.2 M166.9,146.1H160v-8.6h6.9c2.4,0,4.3,1.9,4.3,4.3
		S169.3,146.1,166.9,146.1"/>
</g>
</svg>
